<?xml version="1.0" encoding="UTF-8"?>
<svg width="27px" height="27px" viewBox="0 0 27 27" version="1.1" xmlns="http://www.w3.org/2000/svg" xmlns:xlink="http://www.w3.org/1999/xlink">
    <!-- Generator: Sketch 52 (66869) - http://www.bohemiancoding.com/sketch -->
    <title>Email Icon</title>
    <desc>Created with Sketch.</desc>
    <g id="Email-Icon" stroke="none" stroke-width="1" fill="none" fill-rule="evenodd" stroke-linecap="round" stroke-linejoin="round">
        <path d="M3,26 L26,12" id="Stroke-1024" stroke="#000000"></path>
        <path d="M1,12 L13.5,19.5" id="Stroke-1025" stroke="#000000"></path>
        <path d="M14.705,1.49 C14.381,1.203 13.971,1 13.5,1 C13.029,1 12.619,1.203 12.295,1.49 C10.317,3.241 4.614,7.709 2.154,9.627 C1.424,10.196 1,11.067 1,11.991 L1,24.5 C1,25.328 1.672,26 2.5,26 L24.5,26 C25.328,26 26,25.328 26,24.5 L26,11.689 C26,10.954 25.667,10.266 25.087,9.815 C24.148,9.083 15.605,2.286 14.705,1.49 Z" id="Stroke-1026" stroke="#000000"></path>
    </g>
</svg>