<?xml version="1.0" encoding="UTF-8"?>
<svg width="27px" height="27px" viewBox="0 0 27 27" version="1.1" xmlns="http://www.w3.org/2000/svg" xmlns:xlink="http://www.w3.org/1999/xlink">
    <!-- Generator: Sketch 52 (66869) - http://www.bohemiancoding.com/sketch -->
    <title>facebook</title>
    <desc>Created with Sketch.</desc>
    <g id="Page-1" stroke="none" stroke-width="1" fill="none" fill-rule="evenodd" stroke-linecap="round" stroke-linejoin="round">
        <g id="WaitWeb-open" transform="translate(-1236.000000, -946.000000)" stroke="#FFFFFF">
            <g id="Group-48" transform="translate(1236.000000, 927.000000)">
                <path d="M24.25,19.8857 L2.25,19.8857 C1.421,19.8857 0.75,20.5567 0.75,21.3857 L0.75,43.3857 C0.75,44.2147 1.421,44.8857 2.25,44.8857 L13.75,44.8857 L13.75,36.8857 L10.75,36.8857 L10.75,32.8857 L13.75,32.8857 L13.75,29.8857 C13.75,27.1247 15.989,24.8857 18.75,24.8857 L21.75,24.8857 L21.75,28.8857 L19.75,28.8857 C18.646,28.8857 17.75,29.7817 17.75,30.8857 L17.75,32.8857 L21.75,32.8857 L21.25,36.8857 L17.75,36.8857 L17.75,44.8857 L24.25,44.8857 C25.079,44.8857 25.75,44.2147 25.75,43.3857 L25.75,21.3857 C25.75,20.5567 25.079,19.8857 24.25,19.8857 Z" id="facebook"></path>
            </g>
        </g>
    </g>
</svg>