<?xml version="1.0" encoding="UTF-8"?>
<svg width="27px" height="27px" viewBox="0 0 27 27" version="1.1" xmlns="http://www.w3.org/2000/svg" xmlns:xlink="http://www.w3.org/1999/xlink">
    <!-- Generator: Sketch 52 (66869) - http://www.bohemiancoding.com/sketch -->
    <title>FB Icon</title>
    <desc>Created with Sketch.</desc>
    <g id="RB_-181113" stroke="none" stroke-width="1" fill="none" fill-rule="evenodd" stroke-linecap="round" stroke-linejoin="round">
        <g id="Home-181113" transform="translate(-46.000000, -973.000000)" stroke="#000000">
            <g id="LeftWhite">
                <g id="SoMe" transform="translate(47.000000, 973.000000)">
                    <g id="FB-Icon" transform="translate(0.000000, 1.000000)">
                        <path d="M23.5,0 L1.5,0 C0.671,0 0,0.671 0,1.5 L0,23.5 C0,24.329 0.671,25 1.5,25 L13,25 L13,17 L10,17 L10,13 L13,13 L13,10 C13,7.239 15.239,5 18,5 L21,5 L21,9 L19,9 C17.896,9 17,9.896 17,11 L17,13 L21,13 L20.5,17 L17,17 L17,25 L23.5,25 C24.329,25 25,24.329 25,23.5 L25,1.5 C25,0.671 24.329,0 23.5,0 Z" id="Stroke-87"></path>
                    </g>
                </g>
            </g>
        </g>
    </g>
</svg>