<?xml version="1.0" encoding="UTF-8"?>
<svg width="27px" height="27px" viewBox="0 0 27 27" version="1.1" xmlns="http://www.w3.org/2000/svg" xmlns:xlink="http://www.w3.org/1999/xlink">
    <!-- Generator: Sketch 52 (66869) - http://www.bohemiancoding.com/sketch -->
    <title>FB Icon white</title>
    <desc>Created with Sketch.</desc>
    <g id="FB-Icon-white" stroke="none" stroke-width="1" fill="none" fill-rule="evenodd" stroke-linecap="round" stroke-linejoin="round">
        <path d="M24.5,1 L2.5,1 C1.671,1 1,1.671 1,2.5 L1,24.5 C1,25.329 1.671,26 2.5,26 L14,26 L14,18 L11,18 L11,14 L14,14 L14,11 C14,8.239 16.239,6 19,6 L22,6 L22,10 L20,10 C18.896,10 18,10.896 18,12 L18,14 L22,14 L21.5,18 L18,18 L18,26 L24.5,26 C25.329,26 26,25.329 26,24.5 L26,2.5 C26,1.671 25.329,1 24.5,1 Z" id="Stroke-87" stroke="#FFFFFF"></path>
    </g>
</svg>