<?xml version="1.0" encoding="UTF-8"?>
<svg width="93px" height="20px" viewBox="0 0 93 20" version="1.1" xmlns="http://www.w3.org/2000/svg" xmlns:xlink="http://www.w3.org/1999/xlink">
    <!-- Generator: Sketch 52 (66869) - http://www.bohemiancoding.com/sketch -->
    <title>ideal_lab_logo_white</title>
    <desc>Created with Sketch.</desc>
    <g id="Page-1" stroke="none" stroke-width="1" fill="none" fill-rule="evenodd">
        <g id="Desktop-v2-a" transform="translate(-1007.000000, -950.000000)" fill="#FFFFFE">
            <g id="ideal_lab_logo_white" transform="translate(1007.000000, 950.000000)">
                <path d="M19.0149805,8.07780886 C16.3544018,8.07780886 15.9493125,10.2503682 15.9493125,12.7574107 C15.9493125,15.2644533 16.3544018,17.4652816 19.0149805,17.4652816 C21.6747384,17.4652816 22.0506875,15.2644533 22.0506875,12.7574107 C22.0506875,10.2503682 21.6747384,8.07780886 19.0149805,8.07780886 Z M22.1087626,19.8329561 L22.1087626,18.3287701 C21.0100554,19.610165 19.824133,20 18.2339421,20 C16.7592859,20 15.4580341,19.5263465 14.6480607,18.7464787 C13.1734045,17.3259136 13,14.9022941 13,12.7574107 C13,10.6125273 13.1734045,8.21697917 14.6480607,6.79641399 C15.4580341,6.01654624 16.7303509,5.54289273 18.2050072,5.54289273 C19.7668787,5.54289273 20.9809152,5.90505184 22.0506875,7.13089719 L22.0506875,0 L25,0 L25,19.8329561 L22.1087626,19.8329561 Z" id="Fill-1"></path>
                <path d="M52.0219114,13.7957939 L48.5479927,13.7957939 C46.7959078,13.7957939 45.8908573,14.5242028 45.8908573,15.7648909 C45.8908573,17.0059618 46.7372701,17.707187 48.6058016,17.707187 C49.7445739,17.707187 50.5916084,17.6264016 51.3793836,16.924985 C51.817612,16.5201006 52.0219114,15.87286 52.0219114,14.901712 L52.0219114,13.7957939 Z M52.0805491,19.8382377 L52.0805491,18.5971668 C50.9997928,19.5954986 49.9782958,20 48.1389795,20 C46.2998705,20 45.0730381,19.5954986 44.1681948,18.7593119 C43.4090132,18.030903 43,16.9787781 43,15.8190669 C43,13.5260625 44.7228697,11.8804901 48.1097643,11.8804901 L52.0219114,11.8804901 L52.0219114,10.909342 C52.0219114,9.18298419 51.0876457,8.34679757 48.7808858,8.34679757 C47.1460761,8.34679757 46.3576794,8.69750588 45.5406889,9.66865394 L43.5840974,7.96909698 C44.986014,6.45867746 46.4455322,6 48.8981611,6 C52.9561772,6 55,7.59158781 55,10.6937866 L55,19.8382377 L52.0805491,19.8382377 Z" id="Fill-2"></path>
                <polyline id="Fill-3" points="67 12 67 0 69.3715874 0 69.3715874 10.3651413 74 10.3651413 74 12 67 12"></polyline>
                <path d="M81.2628355,9.01157276 L79.2362717,9.01157276 C78.2142406,9.01157276 77.6858226,9.47987818 77.6858226,10.2776811 C77.6858226,11.0750925 78.1802049,11.5259735 79.2703074,11.5259735 C79.9346757,11.5259735 80.4282889,11.4740918 80.8878664,11.023015 C81.1434222,10.7630194 81.2628355,10.3469872 81.2628355,9.72284098 L81.2628355,9.01157276 Z M81.2968711,12.8960409 L81.2968711,12.098238 C80.6663462,12.7398086 80.0708183,13 78.997253,13 C77.9246491,13 77.2095157,12.7398086 76.6810977,12.2021971 C76.2382496,11.7342832 76,11.057668 76,10.3123341 C76,8.83811181 77.0047249,7.78050903 78.9807159,7.78050903 L81.2628355,7.78050903 L81.2628355,7.15597129 C81.2628355,6.04609528 80.7178804,5.50848379 79.3722221,5.50848379 C78.4182622,5.50848379 77.9586847,5.73402219 77.4816087,6.35816837 L76.3401643,5.26610833 C77.1581738,4.29484446 78.0100266,4 79.4402934,4 C81.8079829,4 83,5.02334131 83,7.01755493 L83,12.8960409 L81.2968711,12.8960409 Z" id="Fill-4"></path>
                <path d="M89.5088555,4.84702109 C87.9569606,4.84702109 87.7204342,6.15066748 87.7204342,7.65470069 C87.7204342,9.15892259 87.9569606,10.4793622 89.5088555,10.4793622 C91.060179,10.4793622 91.2795658,9.15892259 91.2795658,7.65470069 C91.2795658,6.15066748 91.060179,4.84702109 89.5088555,4.84702109 Z M92.0386593,11.2480777 C91.5661779,11.7158357 90.8070844,12 89.9468673,12 C89.0194249,12 88.3275567,11.765838 87.6867263,10.9974999 L87.6867263,11.8998066 L86,11.8998066 L86,0 L87.7204342,0 L87.7204342,4.2785037 C88.3448867,3.54337469 89.0529423,3.32600594 89.9641973,3.32600594 C90.8244144,3.32600594 91.5661779,3.61017029 92.0386593,4.07830558 C92.8988764,4.93042125 93,6.36765885 93,7.65470069 C93,8.94155385 92.8988764,10.395396 92.0386593,11.2480777 Z" id="Fill-5"></path>
                <path d="M31.97814,12.2042061 L35.4521187,12.2042061 C37.2042339,12.2042061 38.1093,11.4756058 38.1093,10.2351091 C38.1093,8.99403818 37.2628725,8.29262156 35.3943088,8.29262156 C34.2555168,8.29262156 33.4084677,8.37359842 32.6206789,9.07501504 C32.1824429,9.47989936 31.97814,10.1269485 31.97814,11.098288 L31.97814,12.2042061 Z M31.9195013,6.16176229 L31.9195013,7.40283323 C33.0002763,6.40450145 34.0217909,6 35.8611389,6 C37.7002797,6 38.9271333,6.40450145 39.8319923,7.24049664 C40.5911869,7.96909698 41,9.0212219 41,10.1809331 C41,12.4739375 39.2773077,14.1193185 35.8903547,14.1193185 L31.97814,14.1193185 L31.97814,15.090658 C31.97814,16.8170158 32.9124219,17.653011 35.2192216,17.653011 C36.8540595,17.653011 37.6424699,17.3023027 38.4594744,16.3311546 L40.4160997,18.030903 C39.0141589,19.5413225 37.5546155,20 35.1019443,20 C31.0436509,20 29,18.4082208 29,15.3062134 L29,6.16176229 L31.9195013,6.16176229 Z" id="Fill-6"></path>
                <polyline id="Fill-7" points="63.9627465 17.3798912 63.9627465 0 58 0 58 2.62010882 60.9578916 2.62010882 61.0244724 2.56087842 61.0244724 20 70 20 70 17.3798912 63.9627465 17.3798912"></polyline>
                <polyline id="Fill-8" points="9 2.62467968 9 0 0 0 0 2.62467968 2.98781322 2.62467968 2.98781322 17.3751232 0 17.3751232 0 20 9 20 9 17.3751232 6.01218678 17.3751232 6.01218678 2.62467968 9 2.62467968"></polyline>
            </g>
        </g>
    </g>
</svg>