<?xml version="1.0" encoding="UTF-8"?>
<svg width="58px" height="24px" viewBox="0 0 58 24" version="1.1" xmlns="http://www.w3.org/2000/svg" xmlns:xlink="http://www.w3.org/1999/xlink">
    <!-- Generator: Sketch 52 (66869) - http://www.bohemiancoding.com/sketch -->
    <title>idealist-institute-logo-white</title>
    <desc>Created with Sketch.</desc>
    <defs>
        <polygon id="path-1" points="0 0.00151898734 17.9820391 0.00151898734 17.9820391 23.9779367 0 23.9779367"></polygon>
    </defs>
    <g id="Page-1" stroke="none" stroke-width="1" fill="none" fill-rule="evenodd">
        <g id="Desktop-v2-a" transform="translate(-1137.000000, -948.000000)">
            <g id="idealist-institute-logo-white" transform="translate(1137.000000, 948.000000)">
                <g id="Group-4">
                    <mask id="mask-2" fill="white">
                        <use xlink:href="#path-1"></use>
                    </mask>
                    <g id="Clip-2"></g>
                    <path d="M2.6703,1.56429114 C2.6703,1.13726582 2.82627391,0.769746835 3.13845652,0.461962025 C3.45040435,0.154139241 3.82652609,0 4.26678261,0 C4.70656957,0 5.08030435,0.154139241 5.38732174,0.461962025 C5.6943,0.769746835 5.84765217,1.13726582 5.84765217,1.56429114 C5.84765217,2.00141772 5.6943,2.37375949 5.38732174,2.6815443 C5.08030435,2.98936709 4.70656957,3.14327848 4.26678261,3.14327848 C3.82652609,3.14327848 3.45040435,2.98936709 3.13845652,2.6815443 C2.82627391,2.37375949 2.6703,2.00141772 2.6703,1.56429114 Z M9.00802174,23.9779367 L0,23.9779367 L0,23.0661266 L0.694486957,23.0661266 C1.66143913,23.0661266 2.29104783,22.9307468 2.58397826,22.6595696 C2.87659565,22.3891139 3.0470087,22.0651139 3.09490435,21.6881772 C3.1424087,21.3116203 3.16639565,20.2182911 3.16639565,18.4075063 L3.16639565,13.4915316 C3.16639565,11.5884684 3.0744,10.4257595 2.89044783,10.0026835 C2.70649565,9.57964557 2.46146087,9.31556962 2.1549913,9.20946835 C1.84852174,9.10405063 1.31403913,9.05118987 0.551504348,9.05118987 L0,9.05118987 L0,8.13903797 C2.42397391,7.90124051 4.30305652,7.5513038 5.63791304,7.08850633 L6.08736522,7.08850633 L6.08736522,18.4075063 C6.08736522,20.1391139 6.11444348,21.229443 6.16895217,21.6784177 C6.22306957,22.1277342 6.42056087,22.4712911 6.76138696,22.7091266 C7.10154783,22.9472278 7.70752174,23.0661266 8.57938696,23.0661266 L9.00802174,23.0661266 L9.00802174,23.9779367 Z" id="Fill-1" fill="#FFFFFE" mask="url(#mask-2)"></path>
                    <path d="M11.6443174,1.56429114 C11.6443174,1.13726582 11.8002522,0.769746835 12.112513,0.461962025 C12.4244217,0.154139241 12.8005435,0 13.2408391,0 C13.6805478,0 14.0543217,0.154139241 14.3613391,0.461962025 C14.6683174,0.769746835 14.8216696,1.13726582 14.8216696,1.56429114 C14.8216696,2.00141772 14.6683174,2.37375949 14.3613391,2.6815443 C14.0543217,2.98936709 13.6805478,3.14327848 13.2408391,3.14327848 C12.8005435,3.14327848 12.4244217,2.98936709 12.112513,2.6815443 C11.8002522,2.37375949 11.6443174,2.00141772 11.6443174,1.56429114 Z M8.97401739,23.0661266 L9.66850435,23.0661266 C10.6354957,23.0661266 11.2650652,22.9307468 11.5579957,22.6595696 C11.8505739,22.3891139 12.020987,22.0651139 12.0689217,21.6881772 C12.1164261,21.3116203 12.140413,20.2182911 12.140413,18.4075063 L12.140413,13.4915316 C12.140413,11.5884684 12.0484174,10.4257595 11.8644652,10.0026835 C11.680513,9.57964557 11.4354783,9.31556962 11.1290087,9.20946835 C10.8225391,9.10405063 10.2880565,9.05118987 9.52548261,9.05118987 L8.97401739,9.05118987 L8.97401739,8.13903797 C11.3979913,7.90124051 13.2770739,7.5513038 14.6119304,7.08850633 L15.0613826,7.08850633 L15.0613826,18.4075063 C15.0613826,20.1391139 15.0884609,21.229443 15.1429304,21.6784177 C15.197087,22.1277342 15.3945783,22.4712911 15.7354043,22.7091266 C16.0755261,22.9472278 16.6815391,23.0661266 17.5534043,23.0661266 L17.9820391,23.0661266 L17.9820391,23.9779367 L8.97401739,23.9779367 L8.97401739,23.0661266 Z" id="Fill-3" fill="#FFFFFE" mask="url(#mask-2)"></path>
                </g>
                <path d="M21.7142879,5.61091472 C21.7142879,5.44417524 21.7833437,5.30063153 21.9217802,5.18036303 C22.060031,5.06017397 22.2267028,5 22.4217492,5 C22.6166563,5 22.7823065,5.06017397 22.9183746,5.18036303 C23.0543963,5.30063153 23.1224303,5.44417524 23.1224303,5.61091472 C23.1224303,5.78162609 23.0543963,5.9270763 22.9183746,6.04726536 C22.7823065,6.16753386 22.6166563,6.22762839 22.4217492,6.22762839 C22.2267028,6.22762839 22.060031,6.16753386 21.9217802,6.04726536 C21.7833437,5.9270763 21.7142879,5.78162609 21.7142879,5.61091472 Z M23.0271827,8.04289629 L23.0271827,11.3650951 C23.0271827,11.8732573 23.0362384,12.1932716 23.0543963,12.3250983 C23.0724613,12.4570044 23.1382663,12.5578107 23.2516718,12.6276363 C23.3649845,12.697462 23.5668111,12.7323748 23.8571053,12.7323748 L24,12.7323748 L24,13 L21,13 L21,12.7323748 L21.2312693,12.7323748 C21.5532353,12.7323748 21.7629567,12.692656 21.8605263,12.6130993 C21.9580031,12.533622 22.0146594,12.4385352 22.0305882,12.3279978 C22.0464241,12.2174604 22.0544118,11.8965325 22.0544118,11.3650951 L22.0544118,9.92219089 C22.0544118,9.36362553 22.023808,9.02236168 21.9625542,8.89816102 C21.9013467,8.77407952 21.8197059,8.69654844 21.717678,8.66544862 C21.6156502,8.63446797 21.4376006,8.6188982 21.1836687,8.6188982 L21,8.6188982 L21,8.35127299 C21.8071672,8.28144735 22.4329876,8.17873456 22.8775542,8.04289629 L23.0271827,8.04289629 Z" id="Fill-5" fill="#FFFFFE"></path>
                <path d="M27.5743443,8.98293333 C27.3482237,8.76704 27.1212978,8.60510061 26.8936018,8.49715394 C26.6657658,8.38920727 26.4371945,8.33521455 26.2076781,8.33521455 C25.8205879,8.33521455 25.4977384,8.49998545 25.2391648,8.82952727 C24.9805212,9.15906909 24.8512694,9.69701818 24.8512694,10.4431806 C24.8512694,11.2008242 24.9839521,11.7594861 25.2494224,12.1193212 C25.5148927,12.4792339 25.8428533,12.6590933 26.2333394,12.6590933 C26.4936634,12.6590933 26.7351879,12.5909042 26.9577726,12.4545261 C27.1803924,12.3181867 27.3859279,12.1136194 27.5743443,11.8409018 L27.5743443,8.98293333 Z M27.5743443,8.65339152 L27.5743443,6.8352097 C27.5743443,6.33903515 27.5683578,6.02656 27.5564199,5.89770667 C27.5443769,5.7689697 27.4956449,5.67044848 27.4102589,5.60225939 C27.3247679,5.5340703 27.1725855,5.49997576 26.9538516,5.49997576 L26.8461652,5.49997576 L26.8461652,5.23862303 C27.2583215,5.22725818 27.7097926,5.14770424 28.2004033,5 L28.3077047,5 L28.3077047,11.2556703 C28.3077047,11.7973818 28.3161768,12.1269624 28.333331,12.2442958 C28.3503802,12.3617842 28.4042234,12.448863 28.4948607,12.5056873 C28.585393,12.5625115 28.7538544,12.5909042 29,12.5909042 L29,12.852257 C28.5061685,12.8636218 28.0668454,12.9128048 27.6820658,13 C27.6410357,12.8219248 27.6205206,12.5417212 27.6205206,12.1590788 C27.3671283,12.4394376 27.1060691,12.6496679 26.837343,12.7897697 C26.5685819,12.9298715 26.2904034,13 26.0028077,13 C25.4584238,13 24.9885382,12.7576145 24.5930809,12.2727273 C24.1976586,11.7879176 24,11.2008242 24,10.5113697 C24,9.75380364 24.2019997,9.14114909 24.6059991,8.6732897 C25.0099985,8.20550788 25.4910168,7.97157818 26.0491241,7.97157818 C26.333254,7.97157818 26.6020151,8.02840242 26.8553724,8.14205091 C27.1087297,8.25566061 27.3483987,8.42613333 27.5743443,8.65339152 Z" id="Fill-6" fill="#FFFFFE"></path>
                <path d="M33.0566284,9.5254283 C33.0674113,9.43884171 33.0727843,9.36158872 33.0727843,9.29378505 C33.0727843,8.96240329 32.9799707,8.7053433 32.7944908,8.52260508 C32.6089373,8.33998257 32.3810619,8.24857489 32.1108647,8.24857489 C31.4550975,8.24857489 31.0641911,8.67425698 30.9380721,9.5254283 L33.0566284,9.5254283 Z M34,9.75707156 L30.9164328,9.75707156 C30.9020434,9.97891838 30.8948671,10.1443393 30.8948671,10.2532571 C30.8948671,11.0653198 31.0164227,11.6753215 31.2596075,12.0831463 C31.5026819,12.4910096 31.8656559,12.6949221 32.3484925,12.6949221 C33.0040758,12.6949221 33.4687693,12.3879928 33.7426098,11.7740186 L34,11.7740186 C33.8848111,12.1582009 33.6562733,12.458612 33.3144603,12.6751363 C32.9725736,12.8916607 32.6000681,13 32.1970172,13 C31.8226716,13 31.4691925,12.90111 31.1362854,12.7033686 C30.8034152,12.5056272 30.5307523,12.225966 30.3184808,11.8643849 C30.1061357,11.5028039 30,11.0640857 30,10.5480372 C30,9.81735435 30.2050952,9.21001396 30.6153959,8.72597752 C31.0256231,8.24205679 31.5384162,8 32.1538122,8 C32.7331794,8 33.1812754,8.18520661 33.4979897,8.55546556 C33.8147041,8.92576308 33.9819672,9.32625984 34,9.75707156 Z" id="Fill-7" fill="#FFFFFE"></path>
                <path d="M39.104639,10.016054 L38.4691608,10.2680461 C37.4664698,10.6689657 36.9651045,11.1729499 36.9651045,11.7800768 C36.9651045,12.0206129 37.0292437,12.214465 37.1575221,12.3613985 C37.2857608,12.5084493 37.4528561,12.581916 37.6588477,12.581916 C37.8414619,12.581916 38.0533276,12.5227594 38.2943259,12.4043681 C38.5352448,12.286055 38.8054153,12.1085071 39.104639,11.8717245 L39.104639,10.016054 Z M40.787658,12.0206129 L41,12.0206129 C40.9650727,12.6735246 40.6408046,13 40.0264019,13 C39.7632565,13 39.5556773,12.9312642 39.4032673,12.7938318 C39.2505398,12.6563602 39.1509573,12.4521469 39.104639,12.1809964 C38.7162714,12.4521469 38.3619181,12.6563602 38.0415793,12.7938318 C37.7212009,12.9312642 37.4347574,13 37.1824078,13 C36.8600845,13 36.5823728,12.9083523 36.3494316,12.725096 C36.1164508,12.5418006 36,12.2993877 36,11.997701 C36,11.6044839 36.1951165,11.2608441 36.5853893,10.9667816 C36.975662,10.6727974 37.5144551,10.3864374 38.2017289,10.1076626 L39.104639,9.74685841 L39.104639,9.51777825 C39.104639,9.19325779 39.0832063,8.9584301 39.0404998,8.81329517 C38.9977139,8.66823844 38.8869785,8.53839116 38.7082143,8.42383153 C38.5294104,8.3092719 38.2942068,8.25199209 38.0027227,8.25199209 C37.4196752,8.25199209 37.0950895,8.44298997 37.0290452,8.82475114 C36.9670096,9.21421478 36.8042008,9.40892705 36.5406982,9.40892705 C36.3042246,9.40892705 36.1860275,9.29823821 36.1860275,9.07674322 C36.1860275,8.85911902 36.3430018,8.6252688 36.6569505,8.37515346 C36.9708992,8.12511632 37.4592859,8 38.1220709,8 C38.6142678,8 38.9960866,8.07643825 39.2674478,8.22911926 C39.5386105,8.38187847 39.7180098,8.55555556 39.805328,8.75030693 C39.8922493,8.9450192 39.9359084,9.24283514 39.9359084,9.64375474 L39.9359084,11.5395016 C39.9359084,11.9824915 39.9593256,12.2668966 40.0061599,12.3929122 C40.0525973,12.5188887 40.1538071,12.581916 40.3093923,12.581916 C40.5661872,12.581916 40.7253445,12.3948671 40.787658,12.0206129 Z" id="Fill-8" fill="#FFFFFE"></path>
                <path d="M42.004686,5 L42.004686,11.3650951 C42.004686,11.8732573 42.0121837,12.1932716 42.0285848,12.3250983 C42.0445173,12.4570044 42.1096532,12.5578107 42.2239925,12.6276363 C42.3383318,12.697462 42.5421743,12.7323748 42.8350515,12.7323748 L43,12.7323748 L43,13 L40,13 L40,12.7323748 L40.1921275,12.7323748 C40.4667291,12.7323748 40.6626054,12.7003614 40.7792877,12.6363745 C40.89597,12.5723478 40.9657919,12.4821861 40.9887535,12.3658101 C41.0112465,12.249434 41.0229616,11.9159153 41.0229616,11.3650951 L41.0229616,6.65234142 C41.0229616,6.15200381 40.9700094,5.83691464 40.8650422,5.70691504 C40.7596064,5.57699488 40.5032802,5.51197522 40.0960637,5.51197522 L40.0960637,5.24435 C40.3744142,5.24435 40.7014995,5.21726179 41.0773196,5.16288676 C41.4536082,5.10863089 41.7122774,5.05433531 41.8533271,5 L42.004686,5" id="Fill-9" fill="#FFFFFE"></path>
                <path d="M43.7142415,5.61091472 C43.7142415,5.44417524 43.7834365,5.30063153 43.9218266,5.18036303 C44.0597523,5.06017397 44.2264706,5 44.421517,5 C44.6165635,5 44.7823529,5.06017397 44.9184211,5.18036303 C45.0544892,5.30063153 45.122291,5.44417524 45.122291,5.61091472 C45.122291,5.78162609 45.0544892,5.9270763 44.9184211,6.04726536 C44.7823529,6.16753386 44.6165635,6.22762839 44.421517,6.22762839 C44.2264706,6.22762839 44.0597523,6.16753386 43.9218266,6.04726536 C43.7834365,5.9270763 43.7142415,5.78162609 43.7142415,5.61091472 Z M45.0270898,8.04289629 L45.0270898,11.3650951 C45.0270898,11.8732573 45.0359133,12.1932716 45.0544892,12.3250983 C45.0721362,12.4570044 45.1380805,12.5578107 45.2513932,12.6276363 C45.3647059,12.697462 45.5667183,12.7323748 45.8569659,12.7323748 L46,12.7323748 L46,13 L43,13 L43,12.7323748 L43.2312693,12.7323748 C43.553096,12.7323748 43.7630031,12.692656 43.8605263,12.6130993 C43.9580495,12.533622 44.0147059,12.4385352 44.0304954,12.3279978 C44.0462848,12.2174604 44.0541796,11.8965325 44.0541796,11.3650951 L44.0541796,9.92219089 C44.0541796,9.36362553 44.0235294,9.02236168 43.9626935,8.89816102 C43.9013932,8.77407952 43.8196594,8.69654844 43.7174923,8.66544862 C43.6153251,8.63446797 43.4374613,8.6188982 43.1834365,8.6188982 L43,8.6188982 L43,8.35127299 C43.8071207,8.28144735 44.4331269,8.17873456 44.8775542,8.04289629 L45.0270898,8.04289629 Z" id="Fill-10" fill="#FFFFFE"></path>
                <path d="M47,12.9604286 L47,11.4406699 L47.2198127,11.4406699 C47.4754267,12.3182993 47.9323752,12.7570561 48.5902733,12.7570561 C48.8759143,12.7570561 49.0891826,12.6704695 49.2300783,12.4971806 C49.370974,12.3239689 49.4418067,12.1337483 49.4418067,11.9265576 C49.4418067,11.6855422 49.3663544,11.4878007 49.2162197,11.3333333 C49.0618504,11.1789431 48.7631207,10.9925023 48.3196458,10.7740109 C47.8534582,10.5442961 47.5185423,10.3183224 47.3156679,10.0960513 C47.1127935,9.87763713 47.0111639,9.60831231 47.0111639,9.28815403 C47.0111639,8.98303751 47.1201078,8.69207569 47.3383806,8.41526855 C47.5562684,8.13842285 47.8626973,8 48.2572822,8 C48.6595663,8 48.9925574,8.16383959 49.2554857,8.49151876 C49.3120749,8.4350157 49.3852175,8.29759563 49.4752983,8.07910428 L49.6839471,8.07910428 L49.6839471,9.5084581 L49.4752983,9.5084581 C49.400231,9.16577573 49.2547158,8.87103418 49.0383678,8.62431059 C48.8224047,8.37766413 48.5675606,8.25424448 48.2742205,8.25424448 C48.0486334,8.25424448 47.8665469,8.32397658 47.7271911,8.46328651 C47.5882202,8.60267358 47.5185423,8.76466187 47.5185423,8.94917425 C47.5185423,9.15254669 47.5955345,9.32768688 47.7499038,9.47459484 C47.9004235,9.62528252 48.1879892,9.79660442 48.6126011,9.98871482 C49.2516361,10.2787896 49.6427563,10.5612663 49.7855768,10.836145 C49.9283973,11.1149191 50,11.3823155 50,11.6384113 C50,12.0414921 49.8675735,12.3691713 49.6023354,12.6214488 C49.3374824,12.8737648 49.0037213,13 48.6014372,13 C48.1764404,13 47.7987938,12.8248598 47.4681124,12.4745794 C47.3664827,12.587547 47.2837162,12.7495738 47.2198127,12.9604286 L47,12.9604286" id="Fill-11" fill="#FFFFFE"></path>
                <path d="M52.8222812,8.63736467 L51.4513073,8.63736467 L51.4513073,11.3166685 C51.4513073,11.728042 51.469875,12.0050253 51.5070102,12.1475077 C51.5437666,12.2901009 51.6225843,12.4046115 51.7427056,12.4912242 C51.8628268,12.5778369 51.9916635,12.6211063 52.1284577,12.6211063 C52.3948465,12.6211063 52.6263736,12.4731922 52.8222812,12.17729 L53,12.2801242 C52.8851838,12.5182722 52.7158014,12.6978532 52.4922319,12.8186823 C52.2682834,12.9395485 52.0416825,13 51.81205,13 C51.5456612,13 51.3114816,12.9232901 51.1098901,12.7699812 C50.9082986,12.6166353 50.7824934,12.4370912 50.7324744,12.231423 C50.6824555,12.0257178 50.657446,11.66493 50.657446,11.1488748 L50.657446,8.63736467 L50,8.63736467 L50,8.39108746 C50.3027662,8.383919 50.5740811,8.25939475 50.8139447,8.01758859 C51.0541872,7.77589329 51.2072755,7.43668477 51.2735885,7 L51.4513073,7 L51.4513073,8.38839005 L52.8222812,8.38839005 L52.8222812,8.63736467" id="Fill-12" fill="#FFFFFE"></path>
                <path d="M21.7142879,15.6109147 C21.7142879,15.4441752 21.7833437,15.3006315 21.9217802,15.180363 C22.060031,15.060174 22.2267028,15 22.4217492,15 C22.6166563,15 22.7823065,15.060174 22.9183746,15.180363 C23.0543963,15.3006315 23.1224303,15.4441752 23.1224303,15.6109147 C23.1224303,15.7816658 23.0543963,15.927116 22.9183746,16.0472654 C22.7823065,16.1675339 22.6166563,16.2276284 22.4217492,16.2276284 C22.2267028,16.2276284 22.060031,16.1675339 21.9217802,16.0472654 C21.7833437,15.927116 21.7142879,15.7816658 21.7142879,15.6109147 Z M23.0271827,18.0428963 L23.0271827,21.3650951 C23.0271827,21.8732971 23.0362384,22.1932716 23.0543963,22.3250983 C23.0724613,22.4570044 23.1382663,22.5578107 23.2516718,22.6276363 C23.3649845,22.697462 23.5668111,22.7323748 23.8571053,22.7323748 L24,22.7323748 L24,23 L21,23 L21,22.7323748 L21.2312693,22.7323748 C21.5532353,22.7323748 21.7629567,22.692656 21.8605263,22.6130993 C21.9580031,22.5336617 22.0146594,22.4385352 22.0305882,22.3279978 C22.0464241,22.2174604 22.0544118,21.8965723 22.0544118,21.3650951 L22.0544118,19.9221909 C22.0544118,19.3636255 22.023808,19.0223617 21.9625542,18.898161 C21.9013467,18.7740795 21.8197059,18.6965484 21.717678,18.6654486 C21.6156502,18.634468 21.4376006,18.6188982 21.1836687,18.6188982 L21,18.6188982 L21,18.351273 C21.8071672,18.2814474 22.4329876,18.1787346 22.8775542,18.0428963 L23.0271827,18.0428963 Z" id="Fill-13" fill="#FFFFFE"></path>
                <path d="M25.373883,18 L25.5380136,18 C25.63118,18.2426585 25.6838844,18.5732142 25.6960437,18.9917872 C25.9872873,18.6593085 26.2927238,18.4108008 26.612353,18.2464645 C26.9318993,18.0821682 27.2656384,18 27.6136948,18 C28.0101812,18 28.3348319,18.0802452 28.5876885,18.2406154 C28.840545,18.4011057 29.0033476,18.5976924 29.0761793,18.8304154 C29.1489279,19.0632186 29.185406,19.402588 29.185406,19.8486038 L29.185406,21.3509475 C29.185406,21.9065342 29.1954489,22.2449822 29.2158251,22.3662113 C29.2360354,22.4875205 29.2998617,22.5784624 29.4073039,22.639077 C29.5146217,22.6998117 29.7122009,22.7300589 30,22.7300589 L30,23 L27.4589846,23 L27.4589846,22.7300589 L27.5744778,22.7300589 C27.8662609,22.7300589 28.0567022,22.6889548 28.1458846,22.6067866 C28.2349841,22.5246585 28.285738,22.428829 28.2978974,22.319258 C28.3100152,22.2097672 28.3161156,21.8870238 28.3161156,21.3509475 L28.3161156,19.8016506 C28.3161156,19.4222187 28.2968184,19.1512359 28.2583483,18.9888626 C28.2197953,18.8265694 28.11642,18.6827851 27.9483469,18.5575097 C27.7801079,18.4323545 27.5663024,18.3697368 27.3070134,18.3697368 C27.0111219,18.3697368 26.7284272,18.4548295 26.4589708,18.625015 C26.18939,18.7952005 25.9351224,19.0504787 25.6960437,19.3908497 L25.6960437,21.3509475 C25.6960437,21.9065342 25.7071656,22.2449822 25.7294923,22.3662113 C25.7516946,22.4875205 25.8165583,22.5784624 25.9240006,22.639077 C26.0313183,22.6998117 26.231014,22.7300589 26.5227971,22.7300589 L26.5227971,23 L24,23 L24,22.7300589 C24.2796237,22.7300589 24.4741735,22.7026161 24.5836077,22.6478106 C24.6930004,22.592965 24.7608106,22.5097152 24.7872458,22.3979809 C24.8135565,22.2863267 24.8267534,21.9367013 24.8267534,21.3490245 L24.8267534,19.9150675 C24.8267534,19.3548335 24.815507,19.0149834 24.7933047,18.895517 C24.770978,18.7760106 24.7061143,18.68587 24.5987965,18.6252153 C24.4913543,18.5644806 24.2917831,18.5340331 24,18.5340331 L24,18.264092 C24.4477383,18.2182204 24.9056854,18.1302031 25.373883,18" id="Fill-14" fill="#FFFFFE"></path>
                <path d="M31,22.9604286 L31,21.4406699 L31.219931,21.4406699 C31.4755098,22.3183378 31.9322717,22.7570561 32.5902167,22.7570561 C32.8758614,22.7570561 33.0892864,22.6704695 33.2302609,22.4971806 C33.3712354,22.3239689 33.4417226,22.1337483 33.4417226,21.9265576 C33.4417226,21.6855807 33.3664618,21.4878393 33.2161711,21.3333333 C33.0619538,21.1789431 32.7630664,20.9925023 32.3195473,20.7740109 C31.8533537,20.5443347 31.5187799,20.318361 31.3157874,20.0960513 C31.1127565,19.8776757 31.0112795,19.6083123 31.0112795,19.288154 C31.0112795,18.9830375 31.1202633,18.6920757 31.3383464,18.4152686 C31.5563141,18.1384229 31.8627854,18 32.2575293,18 C32.6597416,18 32.992429,18.1638396 33.2556301,18.4915188 C33.3120276,18.4350157 33.3853636,18.2975956 33.4755611,18.0791043 L33.6842126,18.0791043 L33.6842126,19.5084581 L33.4755611,19.5084581 C33.4003003,19.1658143 33.2546677,18.8710342 33.0385479,18.6243106 C32.8223126,18.3776641 32.5676577,18.2542445 32.2744293,18.2542445 C32.0488778,18.2542445 31.8664425,18.3240151 31.7274314,18.4632865 C31.5883047,18.6026736 31.5187799,18.7646619 31.5187799,18.9491742 C31.5187799,19.1525467 31.5957731,19.3276869 31.7499904,19.4745948 C31.900281,19.6252825 32.187889,19.7966044 32.6127757,19.9887148 C33.2518575,20.2787896 33.6427902,20.5612663 33.785728,20.836145 C33.9285503,21.1149577 34,21.3823155 34,21.6384113 C34,22.0414921 33.8674948,22.3691713 33.6024458,22.6214488 C33.3373969,22.8737263 33.0037085,23 32.6014962,23 C32.1766095,23 31.798804,22.8248598 31.4680414,22.4745794 C31.3665259,22.587547 31.2837968,22.7495738 31.219931,22.9604286 L31,22.9604286" id="Fill-15" fill="#FFFFFE"></path>
                <path d="M37.8223682,18.6373647 L36.451443,18.6373647 L36.451443,21.3166685 C36.451443,21.728042 36.4698958,22.0050253 36.506953,22.1475077 C36.5438585,22.2901009 36.6225197,22.4046115 36.7428229,22.4912242 C36.8630123,22.5778369 36.9916514,22.6211063 37.1285886,22.6211063 C37.3949984,22.6211063 37.6262078,22.4731922 37.8223682,22.17729 L38,22.2801242 C37.8852668,22.5182722 37.715971,22.6978532 37.4921503,22.8186823 C37.268216,22.9395485 37.0415914,23 36.8122008,23 C36.545791,23 36.3117019,22.9232901 36.1100853,22.7699812 C35.9083549,22.6166353 35.7825955,22.4370912 35.7326555,22.231423 C35.6827155,22.0257178 35.6577455,21.66493 35.6577455,21.1488748 L35.6577455,18.6373647 L35,18.6373647 L35,18.3910875 C35.3027471,18.383919 35.5741585,18.2593947 35.8141585,18.0175886 C36.0541585,17.7758933 36.2073887,17.4366848 36.2738112,17 L36.451443,17 L36.451443,18.3883901 L37.8223682,18.3883901 L37.8223682,18.6373647" id="Fill-16" fill="#FFFFFE"></path>
                <path d="M37.7143432,15.6109147 C37.7143432,15.4441752 37.7834043,15.3006315 37.9218515,15.180363 C38.060113,15.060174 38.2267977,15 38.4218593,15 C38.6169208,15 38.7822587,15.060174 38.9183373,15.180363 C39.054416,15.3006315 39.1226875,15.4441752 39.1226875,15.6109147 C39.1226875,15.7816658 39.054416,15.927116 38.9183373,16.0472654 C38.7822587,16.1675339 38.6169208,16.2276284 38.4218593,16.2276284 C38.2267977,16.2276284 38.060113,16.1675339 37.9218515,16.0472654 C37.7834043,15.927116 37.7143432,15.7816658 37.7143432,15.6109147 Z M39.0274789,18.0428963 L39.0274789,21.3650951 C39.0274789,21.8732971 39.0363031,22.1932716 39.054416,22.3250983 C39.0725288,22.4570044 39.1384782,22.5578107 39.2517997,22.6276363 C39.3651211,22.697462 39.5671492,22.7323748 39.8574193,22.7323748 L40,22.7323748 L40,23 L37,23 L37,22.7323748 L37.2312873,22.7323748 C37.5532781,22.7323748 37.7630157,22.692656 37.8605929,22.6130993 C37.9580773,22.5336617 38.014738,22.4385352 38.030668,22.3279978 C38.0465051,22.2174604 38.0544934,21.8965723 38.0544934,21.3650951 L38.0544934,19.9221909 C38.0544934,19.3636255 38.0238873,19.0223617 37.9626287,18.898161 C37.9014165,18.7740795 37.8197693,18.6965484 37.7177336,18.6654486 C37.6156978,18.634468 37.4376345,18.6188982 37.1836829,18.6188982 L37,18.6188982 L37,18.351273 C37.8072297,18.2814474 38.4330985,18.1787346 38.8774673,18.0428963 L39.0274789,18.0428963 Z" id="Fill-17" fill="#FFFFFE"></path>
                <path d="M43.8223036,18.6373647 L42.4515029,18.6373647 L42.4515029,21.3166685 C42.4515029,21.728042 42.4700682,22.0050253 42.5068199,22.1475077 C42.5439505,22.2901009 42.6227583,22.4046115 42.7428644,22.4912242 C42.8629704,22.5778369 42.9917909,22.6211063 43.1285678,22.6211063 C43.394923,22.6211063 43.6260419,22.4731922 43.8223036,22.17729 L44,22.2801242 C43.8851983,22.5182722 43.7158373,22.6978532 43.492296,22.8186823 C43.2683759,22.9395485 43.0418035,23 42.8122001,23 C42.5458449,23 42.3116949,22.9232901 42.1101288,22.7699812 C41.9085628,22.6166353 41.7827734,22.4370912 41.7327608,22.231423 C41.6827482,22.0257178 41.6577419,21.66493 41.6577419,21.1488748 L41.6577419,18.6373647 L41,18.6373647 L41,18.3910875 C41.302728,18.383919 41.5743875,18.2593947 41.8142208,18.0175886 C42.0540541,17.7758933 42.2075019,17.4366848 42.2738065,17 L42.4515029,17 L42.4515029,18.3883901 L43.8223036,18.3883901 L43.8223036,18.6373647" id="Fill-18" fill="#FFFFFE"></path>
                <path d="M48.3556901,18 L48.3556901,21.1513962 C48.3556901,21.6757341 48.362376,22.0043668 48.3764515,22.1373342 C48.3898234,22.2703818 48.4408474,22.3701374 48.5284679,22.4366011 C48.6160884,22.503185 48.7730312,22.5363968 49,22.5363968 L49,22.8063379 C48.4774439,22.81411 48.0959955,22.8767678 47.8556549,22.9941108 L47.7937223,22.9941108 C47.6839327,22.7790153 47.625519,22.4072753 47.6184812,21.8790914 C47.408755,22.2508714 47.1691182,22.5305076 46.8995707,22.7183206 C46.6296713,22.9060935 46.3316208,23 46.0050672,23 C45.7232036,23 45.4740657,22.9266456 45.2576536,22.7799367 C45.0412415,22.6332278 44.8923921,22.4542286 44.8118094,22.242939 C44.7312267,22.0316894 44.6907594,21.7128721 44.6907594,21.2863667 L44.6907594,19.6490525 C44.6907594,19.093586 44.6819621,18.7540964 44.6650714,18.6308641 C44.6478288,18.5076319 44.5936378,18.41669 44.5024984,18.3579985 C44.411359,18.2993069 44.2438595,18.2699411 44,18.2699411 L44,18 L45.4279682,18 L45.4279682,21.33332 C45.4279682,21.6619526 45.4448589,21.900645 45.4793441,22.0492769 C45.5138293,22.1980289 45.6018017,22.3280317 45.7429094,22.4395657 C45.8843691,22.5510597 46.0479977,22.6067866 46.2337955,22.6067866 C46.4991203,22.6067866 46.7521289,22.5080726 46.9931733,22.3104443 C47.2345696,22.1129362 47.3989021,21.9036096 47.4868745,21.6825047 C47.574495,21.46152 47.6184812,21.1455471 47.6184812,20.7347462 L47.6184812,19.6490525 C47.6184812,19.1248347 47.6135548,18.8060174 47.6029981,18.6924803 C47.5927933,18.5790633 47.5488071,18.4803093 47.4717433,18.396138 C47.3943275,18.3120468 47.233514,18.2699411 46.9896544,18.2699411 L46.8816243,18.2699411 L46.8816243,18 L48.3556901,18" id="Fill-19" fill="#FFFFFE"></path>
                <path d="M52.8223036,18.6373647 L51.4515029,18.6373647 L51.4515029,21.3166685 C51.4515029,21.728042 51.4700682,22.0050253 51.5068199,22.1475077 C51.5439505,22.2901009 51.6227583,22.4046115 51.7428644,22.4912242 C51.8629704,22.5778369 51.9917909,22.6211063 52.1285678,22.6211063 C52.394923,22.6211063 52.6260419,22.4731922 52.8223036,22.17729 L53,22.2801242 C52.8851983,22.5182722 52.7158373,22.6978532 52.492296,22.8186823 C52.2683759,22.9395485 52.0418035,23 51.8122001,23 C51.5458449,23 51.3116949,22.9232901 51.1101288,22.7699812 C50.9085628,22.6166353 50.7827734,22.4370912 50.7327608,22.231423 C50.6827482,22.0257178 50.6577419,21.66493 50.6577419,21.1488748 L50.6577419,18.6373647 L50,18.6373647 L50,18.3910875 C50.302728,18.383919 50.5743875,18.2593947 50.8142208,18.0175886 C51.0540541,17.7758933 51.2075019,17.4366848 51.2738065,17 L51.4515029,17 L51.4515029,18.3883901 L52.8223036,18.3883901 L52.8223036,18.6373647" id="Fill-20" fill="#FFFFFE"></path>
                <path d="M57.056767,19.5254283 C57.0674395,19.4388417 57.0729598,19.3615887 57.0729598,19.293785 C57.0729598,18.9624033 56.980219,18.7053433 56.7947373,18.5226051 C56.6088877,18.3399826 56.3810838,18.2485749 56.1109578,18.2485749 C55.4551477,18.2485749 55.0643113,18.6742955 54.9380808,19.5254283 L57.056767,19.5254283 Z M58,19.7570716 L54.9163677,19.7570716 C54.9020149,19.9789184 54.8950225,20.1443393 54.8950225,20.2532571 C54.8950225,21.0653198 55.0164689,21.6753215 55.2597295,22.0831463 C55.5026221,22.4910096 55.865857,22.6949221 56.3486981,22.6949221 C57.0041402,22.6949221 57.4689484,22.3879928 57.7427546,21.7740186 L58,21.7740186 C57.88481,22.1582009 57.6562701,22.458612 57.3143803,22.6751363 C56.9724906,22.8916607 56.6000552,23 56.1970742,23 C55.8227988,23 55.4691324,22.90111 55.1364431,22.7033686 C54.8033858,22.5056272 54.5306836,22.225966 54.3187046,21.8643849 C54.1063575,21.5028039 54,21.0640857 54,20.5480372 C54,19.8173543 54.2049867,19.210014 54.615328,18.7259775 C55.0256693,18.2420954 55.53832,18 56.154016,18 C56.7332781,18 57.1815254,18.1852066 57.4980219,18.5554656 C57.8148864,18.9257631 57.9819671,19.3262598 58,19.7570716 Z" id="Fill-21" fill="#FFFFFE"></path>
            </g>
        </g>
    </g>
</svg>