<?xml version="1.0" encoding="UTF-8"?>
<svg width="27px" height="27px" viewBox="0 0 27 27" version="1.1" xmlns="http://www.w3.org/2000/svg" xmlns:xlink="http://www.w3.org/1999/xlink">
    <!-- Generator: Sketch 52 (66869) - http://www.bohemiancoding.com/sketch -->
    <title>IG Icon</title>
    <desc>Created with Sketch.</desc>
    <g id="IG-Icon" stroke="none" stroke-width="1" fill="none" fill-rule="evenodd" stroke-linecap="round" stroke-linejoin="round">
        <g id="Group-2" transform="translate(1.000000, 1.000000)" stroke="#000000">
            <path d="M25,19 C25,22.313 22.313,25 19,25 L6,25 C2.687,25 0,22.313 0,19 L0,6 C0,2.687 2.687,0 6,0 L19,0 C22.313,0 25,2.687 25,6 L25,19 Z" id="Stroke-38"></path>
            <path d="M20,12.5 C20,16.6423077 16.6423077,20 12.5,20 C8.35769231,20 5,16.6423077 5,12.5 C5,8.35769231 8.35769231,5 12.5,5 C16.6423077,5 20,8.35769231 20,12.5 Z" id="Stroke-40"></path>
            <path d="M20,3.5 C20,3.776 19.776,4 19.5,4 C19.224,4 19,3.776 19,3.5 C19,3.224 19.224,3 19.5,3 C19.776,3 20,3.224 20,3.5 Z" id="Stroke-42"></path>
        </g>
    </g>
</svg>