<?xml version="1.0" encoding="UTF-8"?>
<svg width="27px" height="27px" viewBox="0 0 27 27" version="1.1" xmlns="http://www.w3.org/2000/svg" xmlns:xlink="http://www.w3.org/1999/xlink">
    <!-- Generator: Sketch 52 (66869) - http://www.bohemiancoding.com/sketch -->
    <title>IG Icon white</title>
    <desc>Created with Sketch.</desc>
    <g id="IG-Icon-white" stroke="none" stroke-width="1" fill="none" fill-rule="evenodd" stroke-linecap="round" stroke-linejoin="round">
        <path d="M26,20 C26,23.313 23.313,26 20,26 L7,26 C3.687,26 1,23.313 1,20 L1,7 C1,3.687 3.687,1 7,1 L20,1 C23.313,1 26,3.687 26,7 L26,20 Z" id="Stroke-38" stroke="#FFFFFF"></path>
        <path d="M21,13.5 C21,17.6423077 17.6423077,21 13.5,21 C9.35769231,21 6,17.6423077 6,13.5 C6,9.35769231 9.35769231,6 13.5,6 C17.6423077,6 21,9.35769231 21,13.5 Z" id="Stroke-40" stroke="#FFFFFF"></path>
        <path d="M21,4.5 C21,4.776 20.776,5 20.5,5 C20.224,5 20,4.776 20,4.5 C20,4.224 20.224,4 20.5,4 C20.776,4 21,4.224 21,4.5 Z" id="Stroke-42" stroke="#FFFFFF"></path>
    </g>
</svg>