<?xml version="1.0" encoding="UTF-8"?>
<svg width="27px" height="27px" viewBox="0 0 27 27" version="1.1" xmlns="http://www.w3.org/2000/svg" xmlns:xlink="http://www.w3.org/1999/xlink">
    <!-- Generator: Sketch 52 (66869) - http://www.bohemiancoding.com/sketch -->
    <title>instagram</title>
    <desc>Created with Sketch.</desc>
    <g id="Page-1" stroke="none" stroke-width="1" fill="none" fill-rule="evenodd" stroke-linecap="round" stroke-linejoin="round">
        <g id="WaitWeb-open" transform="translate(-1283.000000, -946.000000)" stroke="#FFFFFF">
            <g id="Group-48" transform="translate(1236.000000, 927.000000)">
                <g id="instagram" transform="translate(47.000000, 19.000000)">
                    <path d="M25.75,19.8857 C25.75,23.1987 23.062,25.8857 19.75,25.8857 L6.75,25.8857 C3.437,25.8857 0.75,23.1987 0.75,19.8857 L0.75,6.8857 C0.75,3.5737 3.437,0.8857 6.75,0.8857 L19.75,0.8857 C23.062,0.8857 25.75,3.5737 25.75,6.8857 L25.75,19.8857 Z" id="Stroke-36"></path>
                    <path d="M19.7275,13.3857 C19.7275,16.9757 16.8175,19.8857 13.2275,19.8857 C9.6375,19.8857 6.7275,16.9757 6.7275,13.3857 C6.7275,9.7957 9.6375,6.8857 13.2275,6.8857 C16.8175,6.8857 19.7275,9.7957 19.7275,13.3857 Z" id="Stroke-38"></path>
                    <path d="M20.75,4.3857 C20.75,4.6617 20.525,4.8857 20.25,4.8857 C19.974,4.8857 19.75,4.6617 19.75,4.3857 C19.75,4.1107 19.974,3.8857 20.25,3.8857 C20.525,3.8857 20.75,4.1107 20.75,4.3857 Z" id="Stroke-40"></path>
                </g>
            </g>
        </g>
    </g>
</svg>