<?xml version="1.0" encoding="UTF-8"?>
<svg width="27px" height="27px" viewBox="0 0 27 27" version="1.1" xmlns="http://www.w3.org/2000/svg" xmlns:xlink="http://www.w3.org/1999/xlink">
    <!-- Generator: Sketch 52 (66869) - http://www.bohemiancoding.com/sketch -->
    <title>IG Icon</title>
    <desc>Created with Sketch.</desc>
    <g id="RB_-181113" stroke="none" stroke-width="1" fill="none" fill-rule="evenodd" stroke-linecap="round" stroke-linejoin="round">
        <g id="Home-181113" transform="translate(-103.000000, -973.000000)" stroke="#000000">
            <g id="LeftWhite">
                <g id="SoMe" transform="translate(47.000000, 973.000000)">
                    <g id="IG-Icon" transform="translate(57.000000, 1.000000)">
                        <g id="Group-2">
                            <path d="M25,19 C25,22.313 22.313,25 19,25 L6,25 C2.687,25 0,22.313 0,19 L0,6 C0,2.687 2.687,0 6,0 L19,0 C22.313,0 25,2.687 25,6 L25,19 Z" id="Stroke-38"></path>
                            <path d="M18.978,12.5 C18.978,16.09 16.068,19 12.478,19 C8.888,19 5.978,16.09 5.978,12.5 C5.978,8.91 8.888,6 12.478,6 C16.068,6 18.978,8.91 18.978,12.5 Z" id="Stroke-40"></path>
                            <path d="M20,3.5 C20,3.776 19.776,4 19.5,4 C19.224,4 19,3.776 19,3.5 C19,3.224 19.224,3 19.5,3 C19.776,3 20,3.224 20,3.5 Z" id="Stroke-42"></path>
                        </g>
                    </g>
                </g>
            </g>
        </g>
    </g>
</svg>