<?xml version="1.0" encoding="UTF-8"?>
<svg width="27px" height="27px" viewBox="0 0 27 27" version="1.1" xmlns="http://www.w3.org/2000/svg" xmlns:xlink="http://www.w3.org/1999/xlink">
    <!-- Generator: Sketch 52 (66869) - http://www.bohemiancoding.com/sketch -->
    <title>Linkedin icon</title>
    <desc>Created with Sketch.</desc>
    <g id="Linkedin-icon" stroke="none" stroke-width="1" fill="none" fill-rule="evenodd" stroke-linecap="round" stroke-linejoin="round">
        <path d="M9,7 C9,8.104 8.104,9 7,9 C5.896,9 5,8.104 5,7 C5,5.896 5.896,5 7,5 C8.104,5 9,5.896 9,7 Z" id="Stroke-1" stroke="#000000"></path>
        <polygon id="Stroke-3" stroke="#000000" points="5 23 9 23 9 11 5 11"></polygon>
        <path d="M24.5,1 L2.5,1 C1.671,1 1,1.671 1,2.5 L1,24.5 C1,25.329 1.671,26 2.5,26 L24.5,26 C25.329,26 26,25.329 26,24.5 L26,2.5 C26,1.671 25.329,1 24.5,1 Z" id="Stroke-5" stroke="#000000"></path>
        <path d="M18.5,11 C17.078,11 15.825,11.673 15,12.704 L15,11 L11,11 L11,23 L14,23 L15,23 L15,16 C15,14.896 15.896,14 17,14 C18.104,14 19,14.896 19,16 L19,23 L23,23 L23,15.5 C23,13.015 20.985,11 18.5,11 Z" id="Stroke-6" stroke="#000000"></path>
    </g>
</svg>