<?xml version="1.0" encoding="UTF-8"?>
<svg width="89px" height="45px" viewBox="0 0 89 45" version="1.1" xmlns="http://www.w3.org/2000/svg" xmlns:xlink="http://www.w3.org/1999/xlink">
    <!-- Generator: Sketch 52 (66869) - http://www.bohemiancoding.com/sketch -->
    <title>LOGO</title>
    <desc>Created with Sketch.</desc>
    <defs>
        <polygon id="path-1" points="0 0.76006 21.6799437 0.76006 21.6799437 20.89766 0 20.89766"></polygon>
        <polygon id="path-3" points="0.839563636 0.40684 14.8552727 0.40684 14.8552727 13.89724 0.839563636 13.89724"></polygon>
    </defs>
    <g id="RB_-181113" stroke="none" stroke-width="1" fill="none" fill-rule="evenodd">
        <g id="Practice-/-Mouseover-181113" transform="translate(-47.000000, -47.000000)">
            <g id="LeftWhite">
                <g id="LOGO" transform="translate(47.000000, 47.000000)">
                    <g id="Group-3">
                        <mask id="mask-2" fill="white">
                            <use xlink:href="#path-1"></use>
                        </mask>
                        <g id="Clip-2"></g>
                        <path d="M12.9615062,3.49706 C12.4828187,2.77046 11.7856312,2.19366 10.8685062,1.76666 C10.4099437,1.56086 9.92694375,1.41246 9.42094375,1.31866 C8.91350625,1.22626 8.38306875,1.18006 7.82819375,1.18006 C7.42713125,1.18006 7.10225625,1.18986 6.85356875,1.20666 C6.60488125,1.22626 6.41369375,1.24586 6.28000625,1.26266 C6.26131875,1.37466 6.24119375,1.47266 6.22394375,1.55666 C6.20381875,1.64066 6.18944375,1.74706 6.17938125,1.87866 C6.16931875,2.00886 6.16069375,2.18946 6.15063125,2.42186 C6.14056875,2.65426 6.12763125,2.98606 6.10750625,3.41306 C6.08881875,4.06546 6.07444375,4.80186 6.06581875,5.62086 C6.05575625,6.43986 6.05000625,7.23086 6.05000625,7.99386 L6.05000625,10.00426 L6.05000625,11.06546 C6.83488125,11.06546 7.56656875,11.03466 8.24506875,10.96886 C8.92213125,10.90306 9.57763125,10.76866 10.2086937,10.56426 C10.8210687,10.37806 11.3457562,10.12606 11.7856312,9.80966 C12.2255062,9.49326 12.5848812,9.13486 12.8623187,8.73446 C13.1383187,8.33406 13.3438812,7.90146 13.4775687,7.43526 C13.6112562,6.96906 13.6788187,6.48606 13.6788187,5.98206 C13.6788187,5.05246 13.4401937,4.22506 12.9615062,3.49706 Z M15.8005687,20.89766 C15.6280687,20.72966 15.5044437,20.60366 15.4282562,20.51966 C15.3520687,20.43706 15.2658187,20.33766 15.1695062,20.22706 C15.0746312,20.11506 14.9553187,19.95266 14.8115687,19.73846 C14.6678187,19.52426 14.4435687,19.20366 14.1373812,18.77526 C13.7736937,18.25306 13.4531312,17.78266 13.1771312,17.36406 C12.8996937,16.94406 12.6179437,16.53106 12.3318812,16.12226 C12.0443812,15.71206 11.7338812,15.29766 11.3989437,14.87906 C11.0640062,14.45906 10.6672562,13.98866 10.2086937,13.46786 C9.82631875,13.03946 9.41088125,12.63906 8.96094375,12.26806 C8.51244375,11.89426 8.03950625,11.66186 7.54213125,11.56946 C7.17844375,11.49526 6.90100625,11.45746 6.70981875,11.45746 C6.53875625,11.45746 6.31738125,11.44906 6.05000625,11.42946 L6.05000625,14.58506 C6.05000625,15.47966 6.06006875,16.23286 6.07875625,16.84746 C6.09888125,17.44386 6.11756875,17.95486 6.13625625,18.38326 C6.15638125,18.81166 6.26131875,19.16446 6.45250625,19.44446 C6.60488125,19.68666 6.90100625,19.93306 7.34088125,20.18506 C7.78075625,20.43706 8.39313125,20.57986 9.17656875,20.61766 L9.17656875,20.89766 L-0.00043125,20.89766 L-0.00043125,20.61766 C0.47681875,20.54346 0.93681875,20.43146 1.37669375,20.28306 C1.81656875,20.13466 2.16013125,19.91066 2.40881875,19.61246 C2.50513125,19.50046 2.58131875,19.33386 2.63738125,19.10846 C2.69488125,18.88586 2.73944375,18.63526 2.76675625,18.35526 C2.79550625,18.07666 2.81994375,17.77846 2.83863125,17.46206 C2.85731875,17.14566 2.86738125,16.83766 2.86738125,16.53946 C2.86738125,16.28046 2.87169375,15.92626 2.88175625,15.47966 C2.89181875,15.03166 2.90044375,14.54446 2.91050625,14.01246 C2.92056875,13.48186 2.92488125,12.93726 2.92488125,12.37866 L2.92488125,10.75886 L2.92488125,5.31286 C2.92488125,4.97826 2.92056875,4.63806 2.91050625,4.29366 C2.90044375,3.94926 2.88175625,3.62306 2.85300625,3.31646 C2.82425625,3.00846 2.77681875,2.72986 2.71069375,2.47786 C2.64313125,2.22726 2.55256875,2.04526 2.43756875,1.93326 C2.15006875,1.63646 1.83094375,1.43486 1.47731875,1.33266 C1.12225625,1.23186 0.68813125,1.14226 0.17206875,1.06806 L0.17206875,0.78806 L1.34794375,0.78806 C1.99769375,0.78806 2.73369375,0.78526 3.55594375,0.77546 C4.37819375,0.76566 5.20044375,0.76006 6.02269375,0.76006 L8.02944375,0.76006 C9.31025625,0.76006 10.4473187,0.79786 11.4420687,0.87206 C12.4353812,0.94766 13.3438812,1.19826 14.1661312,1.62666 C15.0070687,2.05506 15.6870062,2.63746 16.2016312,3.37106 C16.7191312,4.10886 16.9764437,5.03426 16.9764437,6.15146 C16.9764437,6.84026 16.8470687,7.45906 16.5897562,8.00786 C16.3310062,8.55666 15.9874437,9.04106 15.5576312,9.46106 C15.1263812,9.87966 14.6246937,10.23806 14.0511312,10.53486 C13.4775687,10.83306 12.8752562,11.08506 12.2441937,11.28946 L12.2441937,11.37346 C12.5705062,11.54146 12.8853187,11.78366 13.1915062,12.10006 C13.4976937,12.41646 13.7938187,12.76926 14.0798812,13.15986 C14.5772562,13.86826 15.1177562,14.63126 15.6999437,15.45166 C16.2835687,16.27066 16.8039437,16.99726 17.2639437,17.63006 C17.9697562,18.59746 18.6583187,19.30586 19.3281937,19.75106 C19.9966312,20.19906 20.7800687,20.48746 21.6799437,20.61766 L21.6799437,20.89766 L15.8005687,20.89766 Z" id="Fill-1" fill="#020303" mask="url(#mask-2)"></path>
                    </g>
                    <path d="M28.8573409,13.104609 C28.5260483,13.3554635 28.1101998,13.6193682 27.613954,13.8992232 C27.1149359,14.1790782 26.6311655,14.4821336 26.1612568,14.8112895 C25.691348,15.1375453 25.2852027,15.5000518 24.944207,15.8959089 C24.6032113,16.2903159 24.4327134,16.7398239 24.4327134,17.2415329 C24.4327134,17.7417918 24.5990528,18.1956499 24.9303454,18.6002071 C25.2630241,19.0047644 25.6955065,19.207768 26.2305649,19.207768 C26.7101767,19.207768 27.132956,19.149767 27.5016749,19.0337649 C27.8717801,18.9177628 28.2113896,18.6959089 28.5260483,18.368203 C28.746448,18.1564992 28.8573409,17.8867944 28.8573409,17.5576385 L28.8573409,13.104609 Z M33.7518771,19.207768 C33.6035578,19.5543242 33.4108814,19.8675298 33.1710754,20.1473848 C32.9312695,20.4272398 32.6498787,20.6389436 32.3282892,20.7839461 C32.0053136,20.9289487 31.6504563,21 31.2623311,21 C30.6357861,21 30.0785492,20.8071466 29.5906203,20.4228897 C29.1013053,20.0371828 28.8573409,19.3614707 28.8573409,18.3972035 L28.8018944,18.368203 C28.6549613,18.6205075 28.4567402,18.8989125 28.2072311,19.207768 C27.9591082,19.5166235 27.6638558,19.8051787 27.3228601,20.0763335 C26.9804782,20.3460383 26.6034423,20.5635422 26.18898,20.7259451 C25.7745177,20.889798 25.3170844,20.9724495 24.8194525,20.9724495 C24.5255862,20.9724495 24.2261753,20.9289487 23.9212198,20.8419472 C23.6176505,20.7549456 23.3404182,20.6012429 23.0922953,20.3793889 C22.8427862,20.157535 22.6404066,19.8733299 22.4837704,19.5253237 C22.3271341,19.1773175 22.2481229,18.7539099 22.2481229,18.253651 C22.2481229,17.7142413 22.4560471,17.192232 22.8705094,16.6919731 C23.2849717,16.1902641 23.7978514,15.736406 24.4049902,15.3318488 C25.0135151,14.9258415 25.5527319,14.5792853 26.0226406,14.2892802 C26.4925494,14.000725 26.9028532,13.7542206 27.253552,13.552667 C27.6042509,13.3496634 27.9119787,13.1771103 28.1795079,13.0306577 C28.4470371,12.8871051 28.6729814,12.7566028 28.8573409,12.6420508 L28.8573409,9.66224754 C28.8573409,9.62309684 28.8254592,9.53174521 28.7603096,9.38819265 C28.69516,9.24174003 28.5856532,9.09238736 28.429017,8.93868462 C28.2723807,8.78498187 28.0547534,8.64432936 27.7789072,8.51962714 C27.5016749,8.39347488 27.1426591,8.33112377 26.7004736,8.33112377 C26.4052212,8.33112377 26.1141273,8.38477473 25.828578,8.48917659 C25.5430288,8.59647851 25.2907474,8.73133092 25.0689615,8.89518384 C24.8471757,9.05903677 24.6725193,9.22288969 24.5436063,9.38819265 C24.4146933,9.55059555 24.3509299,9.69124806 24.3509299,9.80725013 L24.3509299,11.1079234 C24.3509299,11.3790782 24.2164722,11.6197825 23.9489431,11.8314863 C23.6814139,12.0446401 23.3917061,12.1490419 23.0784336,12.1490419 C22.7831812,12.1490419 22.5295137,12.03884 22.317431,11.815536 C22.1053483,11.5951321 22,11.3384775 22,11.0499223 C22,10.8193682 22.0540603,10.6062144 22.1649532,10.414811 C22.2758461,10.2219575 22.4144623,10.0479544 22.5808017,9.89280166 C22.7457549,9.73909891 22.9259559,9.6042465 23.1200185,9.48824443 C23.3126949,9.37224236 23.4831928,9.2678405 23.6301259,9.16923874 C24.1097378,8.88068358 24.5990528,8.60227861 25.0966848,8.33112377 C25.5943167,8.05996893 26.068384,7.82941481 26.5202726,7.63656137 C26.9721613,7.44515795 27.3866235,7.28855515 27.7650456,7.17400311 C28.1420816,7.05800104 28.4525817,7 28.6910015,7 C29.1706134,7 29.622502,7.13050233 30.0466674,7.39150699 C30.4708329,7.65106163 30.7744022,7.9744174 30.9587617,8.36012429 C31.0322283,8.4949767 31.0793577,8.73133092 31.0973778,9.06918695 C31.1153979,9.40559296 31.1251011,9.73909891 31.1251011,10.0668048 C31.1251011,10.7613672 31.1195564,11.3877784 31.1112395,11.9460383 C31.1015363,12.5071983 31.0973778,13.046608 31.0973778,13.5657172 C31.0973778,14.0877266 31.0918332,14.6227861 31.0835162,15.1723459 C31.0738131,15.7219057 31.0696546,16.3251165 31.0696546,16.9805282 C31.0696546,17.8476437 31.2124292,18.421854 31.4979785,18.7002589 C31.7835278,18.981564 32.1106619,19.1193164 32.4793808,19.1193164 C32.9035463,19.1193164 33.2168188,19.0294148 33.4205845,18.8452615 C33.6229641,18.6625583 33.7615802,18.426204 33.8350468,18.1376489 L34,18.1376489 C33.9819799,18.5045054 33.8988102,18.8612118 33.7518771,19.207768 Z" id="Fill-4" fill="#020303"></path>
                    <path d="M33,21 L33,20.6796783 C33.9201807,20.621438 34.5316265,20.5311655 34.8328313,20.4044928 C35.1325301,20.2792762 35.2831325,20.060875 35.2831325,19.7522013 L35.2831325,3.04888026 C35.2831325,2.89454344 35.2680723,2.77806282 35.2379518,2.7008944 C35.2078313,2.62372599 35.121988,2.53636553 34.9819277,2.44026901 C34.8027108,2.34271649 34.5316265,2.19274769 34.1716867,1.98890661 C33.811747,1.78652153 33.5105422,1.63655273 33.2695783,1.53900021 L33.2695783,1.36573528 L37.5662651,0 L37.7756024,0 L37.7756024,19.8963461 C37.7756024,20.0899951 37.8222892,20.2355959 37.9126506,20.3316924 C38.001506,20.4277889 38.1370482,20.4962213 38.3177711,20.5355335 C38.496988,20.5733897 38.7274096,20.5981419 39.0090361,20.6068779 C39.2891566,20.61707 39.6189759,20.6418221 40,20.6796783 L40,21 L33,21 Z" id="Fill-6" fill="#020303"></path>
                    <path d="M50.545721,18.6760724 C50.2438453,19.2244961 49.8393904,19.6716279 49.3323564,20.0189147 C48.8253224,20.3647545 48.246483,20.6150904 47.5929074,20.7684755 C46.9393318,20.9233075 46.2520516,21 45.5325322,21 C44.6737984,21 43.866354,20.9233075 43.105803,20.7684755 C42.3452521,20.6150904 41.6447831,20.3936951 41,20.1042894 L41,16.2942636 L41.2344666,16.2942636 C41.3898007,16.7573127 41.5847011,17.2435142 41.8177022,17.7514212 C42.0507034,18.2636693 42.3320633,18.7339535 42.6617819,19.166615 C42.9915006,19.6007235 43.3900938,19.9566925 43.8560961,20.234522 C44.3206331,20.5152455 44.8745604,20.6541602 45.5149472,20.6541602 C46.4469519,20.6541602 47.1884525,20.390801 47.7423798,19.8597416 C48.2963072,19.3301292 48.5718054,18.5183463 48.5718054,17.4214987 C48.5718054,16.825323 48.3827667,16.3289922 48.0046893,15.9339535 C47.626612,15.5403618 47.1063892,15.2741085 46.4469519,15.1409819 C45.9223329,15.044031 45.4167644,14.9383979 44.9317116,14.8226357 C44.4466589,14.7083204 44.0114302,14.5824289 43.6216295,14.4478553 C42.8845252,14.1975194 42.2866354,13.7634109 41.830891,13.1484238 C41.3751465,12.5334367 41.1465416,11.7911111 41.1465416,10.9257881 C41.1465416,10.3281654 41.2740328,9.7898708 41.5275498,9.30801034 C41.7810668,8.8275969 42.1210434,8.41374677 42.5504103,8.06790698 C42.9783118,7.72206718 43.4750879,7.45726098 44.042204,7.27348837 C44.6063892,7.09116279 45.2101407,7 45.8534584,7 C46.6711606,7 47.3936108,7.07090439 48.0164127,7.21705426 C48.64068,7.36175711 49.2341735,7.5397416 49.7998242,7.74956072 L50.1500586,11.329509 L49.9170574,11.3873902 C49.64449,10.8100258 49.3704572,10.2760724 49.0993552,9.78408269 C48.8253224,9.29498708 48.5234467,8.87245478 48.193728,8.51648579 C47.8610785,8.15906977 47.485932,7.8855814 47.066823,7.69312661 C46.647714,7.50067183 46.165592,7.40372093 45.6204572,7.40372093 C45.2878077,7.40372093 44.9624853,7.46160207 44.6400938,7.57736434 C44.3191676,7.69312661 44.0363423,7.86098191 43.7930832,8.08237726 C43.5483587,8.30377261 43.3490621,8.5830491 43.193728,8.92020672 C43.0369285,9.25591731 42.9592614,9.64661499 42.9592614,10.0879587 C42.9592614,10.8013437 43.1644197,11.3106977 43.5732708,11.6189147 C43.9821219,11.9271318 44.4994138,12.1572093 45.1222157,12.3120413 C45.5515826,12.4075452 46.0190504,12.5088372 46.5260844,12.6159173 C47.0331184,12.7201034 47.4698124,12.8213953 47.8405627,12.9183463 C48.718347,13.1296124 49.4642438,13.5724031 50.0782532,14.2452713 C50.6922626,14.9195866 51,15.7472868 51,16.7283721 C51,17.4779328 50.8475967,18.1276486 50.545721,18.6760724" id="Fill-8" fill="#020303"></path>
                    <path d="M60.0792801,9.21405637 L55.5693887,9.21405637 L55.5693887,16.7003211 C55.5693887,17.6692829 55.7865536,18.3713878 56.222371,18.8080628 C56.6567009,19.2433107 57.2204373,19.4616482 57.9135802,19.4616482 C58.4877287,19.4616482 58.9622192,19.3717446 59.3385393,19.1905102 C59.713372,19.0107028 60.0406069,18.7324295 60.3172691,18.3514092 L60.4942734,18.4370318 C60.3767663,18.7224402 60.2131489,19.0206921 60.0049085,19.3346415 C59.7981556,19.6471638 59.5200059,19.9325722 59.1749219,20.1865858 C58.8283504,20.4448805 58.4237692,20.6432394 57.9582032,20.7845166 C57.4941246,20.9286479 56.9452625,21 56.3116168,21 C55.8951361,21 55.497992,20.9386372 55.1157221,20.8144845 C54.7334523,20.6917588 54.3972929,20.5105244 54.1027815,20.2736354 C53.8097575,20.0367463 53.5702811,19.7698894 53.3858397,19.4759187 C53.1999108,19.1819479 53.10769,18.882269 53.10769,18.578309 C53.10769,16.7959329 53.1166146,15.1020335 53.1359512,13.4980378 C53.1567752,11.8940421 53.1671873,10.4655726 53.1671873,9.21405637 L51,9.21405637 L51,8.90010703 L55.2763647,5 L55.5113788,5 L55.5113788,7.47591866 L61,7.47591866 L60.0792801,9.21405637 Z" id="Fill-10" fill="#020303"></path>
                    <path d="M71.2377067,11.7234657 C71.0999364,10.9740072 70.8753709,10.2837545 70.5640102,9.64981949 C70.2526494,9.01588448 69.8393387,8.49314079 69.3268334,8.0801444 C68.8143281,7.66714801 68.1819627,7.46064982 67.4311149,7.46064982 C66.8263035,7.46064982 66.2848665,7.65270758 65.8095591,8.0368231 C65.3328741,8.42093863 64.9250742,8.92635379 64.5861594,9.54873646 C64.2472446,10.1740072 63.9909919,10.8743682 63.8160237,11.6512635 C63.6424332,12.4296029 63.555638,13.2223827 63.555638,14.0296029 C63.555638,14.9119134 63.6286562,15.7465704 63.7760704,16.5350181 C63.9207291,17.3234657 64.1604493,18.0180505 64.4910979,18.6231047 C64.8203688,19.2281588 65.240568,19.7090253 65.754451,20.0628159 C66.268334,20.4180505 66.8814116,20.5971119 67.5950615,20.5971119 C68.310089,20.5971119 68.9107673,20.3703971 69.3957185,19.9198556 C69.8820475,19.46787 70.2760704,18.9018051 70.5777872,18.2202166 C70.879504,17.5386282 71.0999364,16.8050542 71.2377067,16.0166065 C71.3754769,15.2296029 71.4429843,14.498917 71.4429843,13.8274368 C71.4429843,13.1747292 71.3754769,12.4729242 71.2377067,11.7234657 M73.4778508,16.634657 C73.1292921,17.5097473 72.662251,18.2736462 72.0753497,18.9249097 C71.4898262,19.5790614 70.8078635,20.0873646 70.0280839,20.4527076 C69.2496821,20.8180505 68.4299491,21 67.5688851,21 C66.8538576,21 66.111276,20.865704 65.342518,20.5971119 C64.5723824,20.3285199 63.8614879,19.901083 63.2125901,19.3148014 C62.5609368,18.7299639 62.0291437,17.9805054 61.6185884,17.06787 C61.2066554,16.1552347 61,15.0851986 61,13.8563177 C61,12.9725632 61.1611912,12.1176895 61.4808181,11.2916968 C61.8004451,10.467148 62.2509538,9.73646209 62.8282111,9.10252708 C63.4040907,8.46859206 64.0998304,7.96028881 64.9154303,7.57617329 C65.7310301,7.19205776 66.6334252,7 67.6239932,7 C68.3555532,7 69.0981348,7.14296029 69.8489826,7.43176895 C70.6012081,7.72057762 71.2831708,8.1465704 71.8976261,8.71407942 C72.5107037,9.28158845 73.0149428,9.99205776 73.4089657,10.8454874 C73.8016109,11.700361 74,12.7039711 74,13.8563177 C74,14.8353791 73.8250318,15.7624549 73.4778508,16.634657" id="Fill-12" fill="#020303"></path>
                    <g id="Group-16" transform="translate(74.000000, 7.000000)">
                        <mask id="mask-4" fill="white">
                            <use xlink:href="#path-3"></use>
                        </mask>
                        <g id="Clip-15"></g>
                        <path d="M8.96465455,13.89724 L8.96465455,13.58924 C9.48683636,13.55284 9.90283636,13.49264 10.2112,13.40864 C10.5210182,13.32464 10.6766545,13.13424 10.6766545,12.83604 L10.6766545,5.79824 C10.6766545,4.71744 10.4628364,3.84664 10.0381091,3.18724 C9.61192727,2.52644 8.89629091,2.19604 7.8912,2.19604 C7.25265455,2.19604 6.72029091,2.32484 6.29556364,2.58664 C5.86938182,2.84704 5.3952,3.22924 4.87301818,3.73044 L4.87301818,12.89064 C4.91229091,13.07824 4.9792,13.21264 5.07665455,13.29664 C5.17410909,13.38064 5.28901818,13.44084 5.42429091,13.47724 C5.55956364,13.51644 5.7152,13.53884 5.88974545,13.54864 C6.06283636,13.55844 6.24610909,13.57944 6.44101818,13.61864 L6.44101818,13.89724 L0.839563636,13.89724 L0.839563636,13.61864 C1.28465455,13.57944 1.66574545,13.49684 1.98574545,13.36664 C2.30574545,13.23644 2.46429091,13.02224 2.46429091,12.72404 L2.46429091,3.11724 C2.46429091,2.96744 2.44974545,2.85544 2.42210909,2.78264 C2.39156364,2.70704 2.31010909,2.62304 2.17483636,2.53064 C2.00029091,2.43684 1.79665455,2.33044 1.56538182,2.20864 C1.33265455,2.08684 1.10138182,1.98044 0.870109091,1.88804 L0.870109091,1.72004 L4.67083636,0.40684 L4.84392727,0.40684 L4.84392727,3.42384 L4.90210909,3.45184 C5.11592727,3.13544 5.3792,2.79524 5.69774545,2.43264 C6.01629091,2.07004 6.37701818,1.73824 6.78138182,1.44144 C7.18574545,1.14324 7.62938182,0.89684 8.11229091,0.70084 C8.59374545,0.50624 9.09556364,0.40684 9.61483636,0.40684 C10.7333818,0.40684 11.5915636,0.80724 12.1893818,1.60944 C12.7857455,2.40884 13.0853818,3.44204 13.0853818,4.70904 L13.0853818,12.92004 C13.0853818,13.05024 13.1479273,13.16224 13.2744727,13.25464 C13.3995636,13.34704 13.5493818,13.41704 13.7224727,13.46324 C13.8984727,13.51084 14.0861091,13.54864 14.2897455,13.57664 C14.4919273,13.60324 14.6810182,13.62844 14.8555636,13.64524 L14.8555636,13.89724 L8.96465455,13.89724 Z" id="Fill-14" fill="#020303" mask="url(#mask-4)"></path>
                    </g>
                    <path d="M32.5294941,31.6810555 C32.7057589,32.1531017 32.9477734,32.5875513 33.2555374,32.9857968 C33.5619025,33.3854348 33.9256237,33.7279816 34.343903,34.0148298 C34.7621823,34.3016779 35.2224295,34.52865 35.7246444,34.695746 C36.1345302,34.8252454 36.5388202,34.9115784 36.9389135,34.9589222 C37.3390068,35.0048736 37.8090464,35.0285456 38.3490324,35.0285456 L41.0559571,35.0285456 L41.0559571,33.2503655 L41.0559571,31.5557335 C41.0559571,31.0377358 41.0503614,30.5601198 41.0405689,30.1256701 C41.0321753,29.689828 41.0279785,29.3152545 41.0279785,29.000557 C41.0097925,28.2959688 40.9762182,27.7180951 40.9300536,27.2641509 C40.883889,26.8102068 40.7481931,26.4356332 40.5243647,26.1404303 C40.3578923,25.9357377 40.1074843,25.7644642 39.7717417,25.6252176 C39.4359991,25.4873634 38.9533691,25.41774 38.3210539,25.41774 C37.7810678,25.41774 37.1949172,25.4539442 36.562602,25.5277449 C35.9302868,25.6029381 35.3161576,25.796491 34.7202145,26.1111885 C33.939613,26.5191812 33.3338774,27.0608508 32.9072045,27.7375896 C32.4791327,28.4115435 32.2650968,29.2219592 32.2650968,30.1674441 C32.2650968,30.7049363 32.3532292,31.2090093 32.5294941,31.6810555 M34.0641175,42.5283715 C34.5397529,43.2510618 35.1301003,43.7690594 35.8365586,44.0837569 C36.6731173,44.454153 37.7446957,44.6407436 39.0456983,44.6407436 C39.4359991,44.6407436 39.7899277,44.621249 40.1074843,44.5850449 C40.4236419,44.5460558 40.6642574,44.5001044 40.8321287,44.4457982 C40.8503148,44.3344009 40.8698997,44.2327508 40.8880858,44.1394555 C40.9062719,44.0475527 40.9202611,43.931978 40.9300536,43.7927313 C40.9398461,43.6548771 40.9482397,43.4822112 40.9580322,43.2789111 C40.9678247,43.0756109 40.9818139,42.8054724 41,42.4726728 C41.0181861,41.8237833 41.0321753,41.1108404 41.0405689,40.3338439 C41.0503614,39.555455 41.0559571,38.8160551 41.0559571,38.111467 L41.0559571,36.3346794 L41.0559571,35.4448931 L39.4919562,35.4448931 C39.0652833,35.4448931 38.7211471,35.4546404 38.4595477,35.4727425 C36.7850315,35.5660377 35.5162042,36.038084 34.6502681,36.8888812 C33.7857309,37.7424633 33.3520634,38.7965606 33.3520634,40.056743 C33.3520634,40.9827334 33.5898811,41.8056813 34.0641175,42.5283715 M29.3063651,28.6677574 C29.5106085,28.1288728 29.7806015,27.6568266 30.1149452,27.2502263 C30.4506878,26.8422335 30.8228025,26.4955093 31.2326883,26.2086611 C31.6411751,25.9204205 32.0510609,25.7045882 32.4595477,25.5569867 C33.167405,25.2965954 33.957799,25.1406391 34.8321287,25.0849405 C35.7064584,25.0292418 36.5528095,25 37.3711821,25 L47,25 L47,25.2771009 C46.5355561,25.3522941 46.0920961,25.4734387 45.6738167,25.6391422 C45.2555374,25.8062383 44.915598,26.0373877 44.6553975,26.3339832 C44.5630683,26.4453805 44.4875262,26.6069066 44.4315691,26.819954 C44.375612,27.0330015 44.3252506,27.2780756 44.279086,27.556569 C44.2329214,27.8336698 44.1993472,28.1246954 44.1811611,28.4310381 C44.1629751,28.7373808 44.1531826,29.0381536 44.1531826,29.3333565 C44.1531826,29.5937478 44.1489858,29.9446494 44.1391933,30.3888463 C44.1294008,30.8344357 44.1210072,31.3204066 44.1112147,31.8481515 C44.1014222,32.3758964 44.0972255,32.917566 44.0972255,33.4731602 L44.0972255,35.0842442 L44.0972255,36.5560816 L44.0972255,37.7786674 C44.0972255,38.1852677 44.1014222,38.6030077 44.1112147,39.0277101 C44.1210072,39.4538049 44.125204,39.9453457 44.125204,40.5009399 C44.125204,40.8337395 44.1349965,41.1707164 44.1531826,41.5146557 C44.1713686,41.8572025 44.2049429,42.1858247 44.2511075,42.5019146 C44.2972721,42.8152197 44.3532292,43.0978904 44.4189788,43.3485344 C44.4833294,43.5991784 44.5714619,43.7788067 44.6833761,43.890204 C44.9631616,44.1854069 45.2415481,44.3845297 45.5199347,44.4861798 C45.7997202,44.5892223 46.1914199,44.6672004 46.692236,44.7228991 L46.692236,45 L37.2872464,45 C36.5807881,45 35.906505,44.9596185 35.2643973,44.8760705 C34.6222896,44.7925225 34.0039636,44.6407436 33.4080205,44.4165564 C32.4595477,44.0656548 31.6789461,43.5295551 31.064817,42.8054724 C30.4506878,42.0841746 30.1429238,41.166539 30.1429238,40.056743 C30.1429238,38.8341572 30.5388202,37.8482907 31.3306132,37.0991436 C32.1210072,36.3486041 33.14782,35.8431386 34.4138494,35.5841398 L34.4138494,35.4727425 C33.7437631,35.3989417 33.0834693,35.2374156 32.4315691,34.9867716 C31.7810678,34.7361275 31.199114,34.3991506 30.6885055,33.9730558 C30.176498,33.5469609 29.7666123,33.042888 29.4602471,32.4594444 C29.1524831,31.8760008 29,31.2131867 29,30.4723943 C29,29.8054028 29.1021217,29.2052496 29.3063651,28.6677574" id="Fill-17" fill="#020303"></path>
                    <path d="M20.1434511,32.896841 C20.4747055,32.6445365 20.8905059,32.3806318 21.3866944,32.1007768 C21.8856549,31.8209218 22.3679834,31.5178664 22.8392238,31.1887105 C23.3090783,30.8624547 23.7151767,30.4999482 24.0561331,30.1040911 C24.3970894,29.7096841 24.5661816,29.2601761 24.5661816,28.7584671 C24.5661816,28.2582082 24.4012474,27.8043501 24.0699931,27.3997929 C23.7373527,26.9952356 23.3049203,26.792232 22.7699238,26.792232 C22.2903673,26.792232 21.8676369,26.850233 21.4989605,26.9662351 C21.1288981,27.0822372 20.7879418,27.3040911 20.4747055,27.631797 C20.2543313,27.8449508 20.1434511,28.1132056 20.1434511,28.4423615 L20.1434511,32.896841 Z M15.2494802,26.792232 C15.3977824,26.4456758 15.5904366,26.1324702 15.8302148,25.8540653 C16.0699931,25.5727602 16.3513514,25.3610564 16.6729037,25.2160539 C16.995842,25.0725013 17.3506584,25 17.7373527,25 C18.3638254,25 18.9223839,25.1928534 19.4102564,25.5771103 C19.8995149,25.9642672 20.1434511,26.6385293 20.1434511,27.6027965 L20.1988912,27.631797 C20.3458073,27.3809425 20.5440055,27.1010875 20.7934858,26.792232 C21.04158,26.4833765 21.3367983,26.1948213 21.6777547,25.9236665 C22.018711,25.6554117 22.3957034,25.4364578 22.8115038,25.2740549 C23.2259182,25.110202 23.6819127,25.0275505 24.1794872,25.0275505 C24.4747055,25.0275505 24.7740818,25.0725013 25.0790021,25.1580528 C25.3825364,25.2450544 25.6583507,25.3987571 25.9078309,25.6206111 C26.1559252,25.8439151 26.3596674,26.1281201 26.5162855,26.4746763 C26.6729037,26.8226825 26.7519058,27.2460901 26.7519058,27.746349 C26.7519058,28.2857587 26.5440055,28.807768 26.1295911,29.3080269 C25.7151767,29.8111859 25.2023562,30.265044 24.5939016,30.6696012 C23.985447,31.0741585 23.4476784,31.4207147 22.976438,31.7107198 C22.5079695,31.999275 22.0977131,32.2457794 21.7470547,32.447333 C21.3963964,32.6503366 21.0887041,32.8243397 20.8212058,32.9693423 C20.5537076,33.1128949 20.3277893,33.2433972 20.1434511,33.3593993 L20.1434511,36.3392025 C20.1434511,36.3769032 20.1753292,36.4682548 20.2404712,36.6132574 C20.3042273,36.75826 20.4151074,36.9076126 20.5717256,37.0613154 C20.7283437,37.2164682 20.9445599,37.3556706 21.2217602,37.4803729 C21.4989605,37.6065251 21.8579349,37.6688762 22.3000693,37.6688762 C22.5952876,37.6688762 22.8849619,37.6152253 23.1718642,37.5108234 C23.4573805,37.4035215 23.7096327,37.2686691 23.9313929,37.1048162 C24.1531532,36.9409632 24.3277893,36.7771103 24.4566875,36.6132574 C24.5855856,36.4494045 24.6493416,36.310202 24.6493416,36.1927499 L24.6493416,34.8920766 C24.6493416,34.6209218 24.7837838,34.3802175 25.0512821,34.1685137 C25.3187803,33.9553599 25.6084546,33.8509581 25.9216909,33.8509581 C26.2169092,33.8509581 26.4705475,33.96116 26.6826057,34.184464 C26.8946639,34.4048679 27,34.6615225 27,34.9500777 C27,35.1806318 26.9445599,35.3937856 26.8336798,35.585189 C26.7241857,35.7780425 26.5855856,35.9520456 26.4192654,36.1071983 C26.2543313,36.2609011 26.0741511,36.3957535 25.8801109,36.5117556 C25.6874567,36.6277576 25.5155925,36.7336095 25.3686764,36.8307613 C24.8891199,37.1193164 24.4012474,37.3977214 23.9036729,37.6688762 C23.4060984,37.9400311 22.9306999,38.1705852 22.4802495,38.3634386 C22.028413,38.5548421 21.6139986,38.7114448 21.2356202,38.8259969 C20.8586279,38.941999 20.5481635,39 20.3083853,39 C19.8302148,39 19.3783784,38.8694977 18.954262,38.608493 C18.5301455,38.3489384 18.2266112,38.0255826 18.040887,37.6398757 C17.968815,37.5050233 17.9216909,37.2686691 17.9036729,36.9308131 C17.8856549,36.594407 17.8759529,36.2609011 17.8759529,35.9331952 C17.8759529,35.2386328 17.8801109,34.6136717 17.8898129,34.0539617 C17.8995149,33.4942517 17.9036729,32.953392 17.9036729,32.4342828 C17.9036729,31.9122734 17.9078309,31.3772139 17.9175329,30.8276541 C17.9272349,30.2780943 17.9313929,29.6748835 17.9313929,29.0194718 C17.9313929,28.1538063 17.7886348,27.578146 17.5031185,27.2997411 C17.2176022,27.018436 16.8905059,26.8806836 16.5204435,26.8806836 C16.0977131,26.8806836 15.7844768,26.9705852 15.5807346,27.1547385 C15.3783784,27.3374417 15.2397782,27.573796 15.1663202,27.8623511 L15,27.8623511 C15.019404,27.4954946 15.1025641,27.1402382 15.2494802,26.792232 Z" id="Fill-19" fill="#020303"></path>
                    <path d="M4.92887568,25.0589722 L5.1230312,25.0589722 L5.1230312,28.0296967 L5.15076771,28.0577085 C5.35324418,27.7259899 5.60287271,27.3706824 5.89687964,26.9991575 C6.1922734,26.6261584 6.52372462,26.2885425 6.89400693,25.9848357 C7.26290243,25.6811289 7.67340267,25.4408172 8.12412085,25.2653749 C8.57622585,25.0884583 9.06022784,25 9.57751362,25 C10.7577018,25 11.628628,25.3715249 12.191679,26.1175232 C12.7547301,26.8635215 13.0348687,27.9515586 13.0348687,29.3831087 L13.0348687,36.558551 L13.0348687,36.8828981 C13.0348687,37.0185341 13.0445765,37.1615417 13.0626053,37.3089722 C13.080634,37.4549284 13.0958891,37.5920388 13.10421,37.7203033 C13.1139178,37.8470935 13.136107,37.9399747 13.1735513,37.9989469 C13.247053,38.1758635 13.3538385,38.3026537 13.4911342,38.3822662 C13.6298167,38.4604044 13.7823675,38.5193766 13.9473997,38.5577085 C14.1138187,38.5975147 14.2899455,38.6211036 14.4743933,38.6314238 C14.658841,38.6417439 14.833581,38.6564869 15,38.6756529 L15,39 L10.7382863,39 L10.7382863,30.4401853 C10.7382863,29.1457456 10.5538385,28.190396 10.1835562,27.5726622 C9.81188707,26.9564027 9.11708767,26.6467987 8.09777117,26.6467987 C7.7080733,26.6467987 7.36968796,26.6998736 7.08261516,26.8089722 C6.79554235,26.9165965 6.53620604,27.0537068 6.30460624,27.2203033 C6.07300644,27.3868997 5.85943536,27.5785594 5.66527984,27.7938079 C5.47112432,28.0090564 5.28945022,28.2346251 5.1230312,28.4690396 L5.1230312,36.8519377 C5.1230312,37.0480202 5.14105993,37.2986521 5.17850421,37.6023589 C5.21594849,37.9060657 5.2880634,38.1360573 5.39900941,38.2938079 C5.62090144,38.391112 5.92045567,38.4707245 6.29905894,38.5296967 C6.67627538,38.5886689 7.0687469,38.6358467 7.47369985,38.6756529 L7.47369985,39 L2.82644874,39 L2.82644874,27.3824768 C2.82644874,27.2262005 2.81258049,27.1082561 2.78484398,27.0286436 C2.75710748,26.9505055 2.67805844,26.8635215 2.55047053,26.764743 C2.38405151,26.6659646 2.13997028,26.5391744 1.81684002,26.3814238 C1.49370976,26.2251474 1.22189203,26.0968829 1,25.9995788 L1,25.8241365 L4.92887568,25.0589722 Z" id="Fill-21" fill="#020303"></path>
                </g>
            </g>
        </g>
    </g>
</svg>