<?xml version="1.0" encoding="UTF-8"?>
<svg width="53px" height="107px" viewBox="0 0 53 107" version="1.1" xmlns="http://www.w3.org/2000/svg" xmlns:xlink="http://www.w3.org/1999/xlink">
    <!-- Generator: Sketch 54.1 (76490) - https://sketchapp.com -->
    <title>logo-idealist-institute</title>
    <desc>Created with Sketch.</desc>
    <g id="RB_-190116" stroke="none" stroke-width="1" fill="none" fill-rule="evenodd">
        <g id="Home-190109-Copy" transform="translate(-27.000000, -37.000000)" fill="#000000">
            <g id="logo-idealist-institute" transform="translate(27.000000, 37.000000)">
                <g transform="translate(0.000000, -0.403774)">
                    <rect id="Rectangle" fill-rule="nonzero" x="0" y="0.403773585" width="25.2" height="48.0490566"></rect>
                    <rect id="Rectangle" fill-rule="nonzero" x="0" y="50.8754717" width="25.2" height="23.8226415"></rect>
                    <polygon id="Rectangle" fill-rule="nonzero" transform="translate(39.457258, 50.586389) rotate(180.000000) translate(-39.457258, -50.586389) " points="26.8825511 26.4962138 52.0319644 26.4962138 52.0319644 74.6765649 26.8825511 74.6765649"></polygon>
                    <polygon id="Rectangle" fill-rule="nonzero" transform="translate(39.457258, 12.343265) rotate(180.000000) translate(-39.457258, -12.343265) " points="26.8825511 0.403177 52.0319644 0.403177 52.0319644 24.283354 26.8825511 24.283354"></polygon>
                    <g id="Group" transform="translate(1.200000, 84.388679)" fill-rule="nonzero">
                        <polygon id="Path" points="0.563314286 8.83012453 0.563314286 0.387218868 1.14788571 0.387218868 1.14788571 8.83012453"></polygon>
                        <path d="M5.7264381,8.83012453 L4.06011429,8.83012453 L4.06011429,0.387218868 L5.7264381,0.387218868 C8.66464762,0.387218868 9.65782857,1.54766415 9.65782857,4.57596604 C9.65782857,7.61638113 8.55127619,8.83012453 5.7264381,8.83012453 Z M5.7264381,0.870535849 L4.64586667,0.870535849 L4.64586667,8.34801887 L5.84099048,8.34801887 C8.10605714,8.34801887 9.04727619,7.01556604 9.04727619,4.58929057 C9.04727619,1.96556981 8.3103619,0.870535849 5.7264381,0.870535849 Z" id="Shape"></path>
                        <polygon id="Path" points="12.277181 8.83012453 12.277181 0.387218868 16.6537905 0.387218868 16.6537905 0.869324528 12.8629333 0.869324528 12.8629333 4.2234717 16.3857143 4.2234717 16.3857143 4.70557736 12.8629333 4.70557736 12.8629333 8.34680755 16.7683429 8.34680755 16.7683429 8.82891321 12.277181 8.82891321"></polygon>
                        <path d="M24.6795429,8.83012453 L23.7253333,6.17975472 L20.111619,6.17975472 L19.094819,8.83012453 L18.4960762,8.83012453 L21.8417143,0.387218868 L22.2361524,0.387218868 L25.3408762,8.83012453 L24.6795429,8.83012453 Z M22.0082286,1.27511698 L20.2911238,5.72429811 L23.5729905,5.72429811 L22.0082286,1.27511698 Z" id="Shape"></path>
                        <polygon id="Path" points="27.5776 8.83012453 27.5776 0.387218868 28.1633524 0.387218868 28.1633524 8.30804528 32.0935619 8.30804528 32.0935619 8.83012453"></polygon>
                        <polygon id="Path" points="33.8484571 8.83012453 33.8484571 0.387218868 34.4330286 0.387218868 34.4330286 8.83012453"></polygon>
                        <path d="M39.0505524,9.0384717 C38.3384381,9.0384717 37.6641143,8.86888679 36.9638095,8.67265283 L37.1929143,8.12513585 C37.8034667,8.36013208 38.389219,8.55515472 39.0623619,8.55515472 C40.0177524,8.55515472 41.2258667,8.18933585 41.2258667,6.70304528 C41.2258667,5.46386415 40.2196952,5.07139623 39.1651048,4.69346415 C38.0703619,4.30220755 36.9638095,3.84553962 36.9638095,2.38347547 C36.9638095,0.831773585 38.1601143,0.256396226 39.6740952,0.256396226 C40.2338667,0.256396226 40.9081905,0.387218868 41.5825143,0.622215094 L41.3534095,1.16973208 C40.8833905,0.961384906 40.3873905,0.739713208 39.5985143,0.739713208 C38.490781,0.739713208 37.5755429,1.13096981 37.5755429,2.38347547 C37.5755429,3.3888717 38.44,3.75469057 39.3942095,4.09264906 C40.5645333,4.51055472 41.836419,4.9938717 41.836419,6.67760755 C41.836419,8.47763019 40.5645333,9.0384717 39.0505524,9.0384717 Z" id="Path"></path>
                        <polygon id="Path" points="46.746819 0.883860377 46.746819 8.83133585 46.1610667 8.83133585 46.1610667 0.883860377 43.6420952 0.883860377 43.6420952 0.388430189 49.2657905 0.388430189 49.2657905 0.883860377 46.746819 0.883860377"></polygon>
                    </g>
                    <g id="Group" transform="translate(0.800000, 97.713208)" fill-rule="nonzero">
                        <polygon id="Path" points="50.3951818 0.263260377 50.3951818 8.70616604 49.8101818 8.70616604 49.8101818 0.263260377"></polygon>
                        <polygon id="Path" points="42.8220909 0.263260377 47.1889091 8.00117736 47.1889091 0.263260377 47.6982727 0.263260377 47.6982727 8.70616604 46.9088182 8.70616604 42.5668182 0.967037736 42.5668182 8.70616604 42.0066364 8.70616604 42.0066364 0.263260377"></polygon>
                        <path d="M38.0357273,0.0537018868 C38.7483636,0.0537018868 39.4231818,0.224498113 40.124,0.420732075 L39.8947273,0.967037736 C39.2837273,0.73325283 38.6975455,0.537018868 38.0239091,0.537018868 C37.0678182,0.537018868 35.8588182,0.904049057 35.8588182,2.39033962 C35.8588182,3.62952075 36.8657273,4.02198868 37.9210909,4.39992075 C39.0166364,4.79117736 40.124,5.24784528 40.124,6.70869811 C40.124,8.26161132 38.9268182,8.83577736 37.4117273,8.83577736 C36.8515455,8.83577736 36.1767273,8.70616604 35.5019091,8.47116981 L35.7311818,7.92244151 C36.2015455,8.132 36.6979091,8.35246038 37.4873636,8.35246038 C38.5959091,8.35246038 39.5118182,7.96241509 39.5118182,6.70869811 C39.5118182,5.70451321 38.6467273,5.33869434 37.6918182,5.00073585 C36.5206364,4.58161887 35.2478182,4.09951321 35.2478182,2.41577736 C35.2478182,0.615754717 36.5206364,0.0537018868 38.0357273,0.0537018868 Z" id="Path"></path>
                        <polygon id="Path" points="31.1386364 8.21073585 31.1386364 0.263260377 31.7236364 0.263260377 31.7236364 8.21073585 34.2444545 8.21073585 34.2444545 8.70616604 28.6166364 8.70616604 28.6166364 8.21073585"></polygon>
                        <polygon id="Path" points="27.4218182 0.263260377 27.4218182 8.70616604 26.8368182 8.70616604 26.8368182 0.263260377"></polygon>
                        <polygon id="Path" points="22.5326364 8.21073585 22.5326364 0.263260377 23.1188182 0.263260377 23.1188182 8.21073585 25.6396364 8.21073585 25.6396364 8.70616604 20.0118182 8.70616604 20.0118182 8.21073585"></polygon>
                        <path d="M15.6863636,0.0537018868 C17.8762727,0.0537018868 18.6657273,1.12450943 18.6657273,3.38241132 L18.6657273,8.70616604 L18.0795455,8.70616604 L18.0795455,3.51323396 C18.0795455,1.22989434 17.4567273,0.537018868 15.6875455,0.537018868 C14.0578182,0.537018868 13.4586364,1.33406792 13.4586364,3.51323396 L13.4586364,8.70616604 L12.8736351,8.70616604 L12.8736364,3.35697358 C12.8724545,1.11118491 13.7127273,0.0537018868 15.6863636,0.0537018868 Z" id="Path"></path>
                        <polygon id="Path" points="8.41818182 8.21073585 8.41818182 0.263260377 9.00318182 0.263260377 9.00318182 8.21073585 11.524 8.21073585 11.524 8.70616604 5.89618182 8.70616604 5.89618182 8.21073585"></polygon>
                        <polygon id="Path" points="4.54890909 0.263260377 4.54890909 8.70616604 0.169090909 8.70616604 0.169090909 8.22406038 3.96272727 8.22406038 3.96272727 4.86991321 0.437363636 4.86991321 0.437363636 4.38780755 3.96272727 4.38780755 3.96272727 0.746577358 0.0556363636 0.746577358 0.0556363636 0.264471698 4.54890909 0.264471698"></polygon>
                    </g>
                </g>
            </g>
        </g>
    </g>
</svg>