<?xml version="1.0" encoding="UTF-8"?>
<svg width="24px" height="32px" viewBox="0 0 24 32" version="1.1" xmlns="http://www.w3.org/2000/svg" xmlns:xlink="http://www.w3.org/1999/xlink">
    <!-- Generator: Sketch 52 (66869) - http://www.bohemiancoding.com/sketch -->
    <title>Page2 icon</title>
    <desc>Created with Sketch.</desc>
    <g id="Page2-icon" stroke="none" stroke-width="1" fill="none" fill-rule="evenodd" stroke-linecap="round" stroke-linejoin="round">
        <path d="M6.5,16.5 L17.5,16.5" id="Path" stroke="#000000"></path>
        <path d="M6.5,18.5 L17.5,18.5" id="Path" stroke="#000000"></path>
        <path d="M6.5,20.5 L17.5,20.5" id="Path" stroke="#000000"></path>
        <path d="M6.5,22.5 L12.5,22.5" id="Path" stroke="#000000"></path>
        <path d="M21,30.5 L3,30.5 C2.171,30.5 1.5,29.828 1.5,29 L1.5,3 C1.5,2.172 2.171,1.5 3,1.5 L16.5,1.5 L22.5,7.5 L22.5,29 C22.5,29.828 21.829,30.5 21,30.5 Z" id="Stroke-5" stroke="#000000"></path>
        <path d="M16.5,1.5 L16.5,5.92 C16.5,6.793 17.208,7.5 18.08,7.5 L22.5,7.5" id="Stroke-7" stroke="#000000"></path>
    </g>
</svg>