<?xml version="1.0" encoding="UTF-8"?>
<svg width="27px" height="27px" viewBox="0 0 27 27" version="1.1" xmlns="http://www.w3.org/2000/svg" xmlns:xlink="http://www.w3.org/1999/xlink">
    <!-- Generator: Sketch 52 (66869) - http://www.bohemiancoding.com/sketch -->
    <title>Search icon white</title>
    <desc>Created with Sketch.</desc>
    <g id="Search-icon-white" stroke="none" stroke-width="1" fill="none" fill-rule="evenodd">
        <path d="M17.5,16 L16.71,16 L16.43,15.73 C17.41,14.59 18,13.11 18,11.5 C18,7.91 15.09,5 11.5,5 C7.91,5 5,7.91 5,11.5 C5,15.09 7.91,18 11.5,18 C13.11,18 14.59,17.41 15.73,16.43 L16,16.71 L16,17.5 L21,22.49 L22.49,21 L17.5,16 L17.5,16 Z M11.5,16 C9.01,16 7,13.99 7,11.5 C7,9.01 9.01,7 11.5,7 C13.99,7 16,9.01 16,11.5 C16,13.99 13.99,16 11.5,16 L11.5,16 Z" id="Shape" fill="#FFFFFF"></path>
    </g>
</svg>