<?xml version="1.0" encoding="UTF-8"?>
<svg width="27px" height="27px" viewBox="0 0 27 27" version="1.1" xmlns="http://www.w3.org/2000/svg" xmlns:xlink="http://www.w3.org/1999/xlink">
    <!-- Generator: Sketch 52 (66869) - http://www.bohemiancoding.com/sketch -->
    <title>Share icon white</title>
    <desc>Created with Sketch.</desc>
    <g id="Share-icon-white" stroke="none" stroke-width="1" fill="none" fill-rule="evenodd">
        <path d="M19,17.08 C18.24,17.08 17.56,17.38 17.04,17.85 L9.91,13.7 C9.96,13.47 10,13.24 10,13 C10,12.76 9.96,12.53 9.91,12.3 L16.96,8.19 C17.5,8.69 18.21,9 19,9 C20.66,9 22,7.66 22,6 C22,4.34 20.66,3 19,3 C17.34,3 16,4.34 16,6 C16,6.24 16.04,6.47 16.09,6.7 L9.04,10.81 C8.5,10.31 7.79,10 7,10 C5.34,10 4,11.34 4,13 C4,14.66 5.34,16 7,16 C7.79,16 8.5,15.69 9.04,15.19 L16.16,19.35 C16.11,19.56 16.08,19.78 16.08,20 C16.08,21.61 17.39,22.92 19,22.92 C20.61,22.92 21.92,21.61 21.92,20 C21.92,18.39 20.61,17.08 19,17.08 L19,17.08 Z" id="Shape" fill="#FFFFFF"></path>
    </g>
</svg>