<?xml version="1.0" encoding="UTF-8"?>
<svg width="32px" height="27px" viewBox="0 0 32 27" version="1.1" xmlns="http://www.w3.org/2000/svg" xmlns:xlink="http://www.w3.org/1999/xlink">
    <!-- Generator: Sketch 52 (66869) - http://www.bohemiancoding.com/sketch -->
    <title>Twitter icon white</title>
    <desc>Created with Sketch.</desc>
    <g id="Twitter-icon-white" stroke="none" stroke-width="1" fill="none" fill-rule="evenodd" stroke-linecap="round" stroke-linejoin="round">
        <path d="M2.891,3.20999941 C5.319,6.16899797 9.666,8.96199661 15.5,9.26299646 C15.178,7.97799709 15.147,4.48899879 17.691,3.03999949 C18.829,2.39099981 19.906,2 21.174,2 C22.768,2 24.077,2.52399974 25.469,3.80099912 C26.601,3.6429992 28.718,2.76999962 29.22,2.42699979 C28.893,3.62999921 27.585,5.17499845 26.64,5.54199827 C27.508,5.53999828 29.415,5.04199852 30,4.74799866 C29.189,5.99999805 27.773,7.19799747 26.998,7.69499723 C27.895,15.4059935 20.737,24.9899888 10.456,24.9999888 C7.52,25.0029888 4.33,24.4039891 1,22.57899 C4.285,22.9479898 7.805,21.9259903 9.826,20.1579912 C7.277,20.1019912 4.696,18.452992 3.522,15.9209932 C4.799,16.301993 5.976,16.4959929 6.674,15.9209932 C5.484,15.7929933 1.63,13.7659943 1.63,9.84099618 C2.516,10.5449958 3.791,11.2719955 4.783,11.0789956 C3.161,10.155996 0.803,6.64499774 2.891,3.20999941 Z" id="Stroke-1" stroke="#FFFFFF"></path>
    </g>
</svg>