<?xml version="1.0" encoding="UTF-8"?>
<svg width="27px" height="27px" viewBox="0 0 27 27" version="1.1" xmlns="http://www.w3.org/2000/svg" xmlns:xlink="http://www.w3.org/1999/xlink">
    <!-- Generator: Sketch 53.2 (72643) - https://sketchapp.com -->
    <title>Twitter icon white</title>
    <desc>Created with Sketch.</desc>
    <g id="Twitter-icon-white" stroke="none" stroke-width="1" fill="none" fill-rule="evenodd" stroke-linecap="round" stroke-linejoin="round">
        <path d="M2.63017241,6.0521734 C4.72327586,8.62521563 8.47068966,11.0539101 13.5,11.3156491 C13.2224138,10.1982583 13.1956897,7.16434677 15.3887931,5.90434739 C16.3698276,5.33999983 17.2982759,5 18.3913793,5 C19.7655172,5 20.8939655,5.45565195 22.0939655,6.56608619 C23.0698276,6.42869496 24.8948276,5.66956489 25.3275862,5.37130417 C25.0456897,6.41739061 23.9181034,7.76086822 23.1034483,8.0799985 C23.8517241,8.07825937 25.4956897,7.6452161 26,7.38956405 C25.3008621,8.47825918 24.0801724,9.5199978 23.412069,9.9521715 C24.1853448,16.6573856 18.0146552,24.9912946 9.15172414,24.9999903 C6.62068966,25.002599 3.87068966,24.4817296 1,22.8947739 C3.83189655,23.2156433 6.86637931,22.3269481 8.60862069,20.7895575 C6.4112069,20.7408619 4.1862069,19.3069496 3.17413793,17.1052115 C4.275,17.4365157 5.28965517,17.6052113 5.89137931,17.1052115 C4.86551724,16.9939072 1.54310345,15.2312994 1.54310345,11.8182575 C2.30689655,12.4304312 3.40603448,13.0626048 4.2612069,12.8947788 C2.86293103,12.0921705 0.830172414,9.03912847 2.63017241,6.0521734 Z" id="Stroke-1" stroke="#FFFFFF"></path>
    </g>
</svg>