<?xml version="1.0" encoding="iso-8859-1"?>
<!-- Generator: Adobe Illustrator 23.0.3, SVG Export Plug-In . SVG Version: 6.00 Build 0)  -->
<svg version="1.1" id="Layer_1" xmlns="http://www.w3.org/2000/svg" xmlns:xlink="http://www.w3.org/1999/xlink" x="0px" y="0px"
	 width="44.012px" height="89.882px" viewBox="0 0 44.012 89.882" enable-background="new 0 0 44.012 89.882" xml:space="preserve">
<rect x="0" y="0" width="21.273" height="40.374"/>
<rect x="0" y="42.234" width="21.273" height="20.014"/>
<rect x="22.739" y="21.868" transform="matrix(-1 3.411703e-11 -3.411703e-11 -1 66.751 84.1161)" width="21.273" height="40.38"/>
<rect x="22.739" y="0" transform="matrix(-1 4.493371e-11 -4.493371e-11 -1 66.751 20.0135)" width="21.273" height="20.014"/>
<g>
	<path d="M1.477,77.623v-6.97h0.495v6.97H1.477z"/>
	<path d="M5.849,77.623H4.438v-6.97h1.411c2.488,0,3.329,0.958,3.329,3.458C9.178,76.621,8.241,77.623,5.849,77.623z M5.849,71.052
		H4.934v6.173h1.012c1.918,0,2.715-1.1,2.715-3.103C8.661,71.956,8.037,71.052,5.849,71.052z"/>
	<path d="M11.396,77.623v-6.97h3.706v0.398h-3.21v2.769h2.983v0.398h-2.983v3.006h3.307v0.398H11.396z"/>
	<path d="M21.898,77.623l-0.808-2.188h-3.06l-0.861,2.188h-0.507l2.833-6.97h0.334l2.629,6.97H21.898z M19.636,71.386l-1.454,3.673
		h2.779L19.636,71.386z"/>
	<path d="M24.352,77.623v-6.97h0.496v6.539h3.328v0.431H24.352z"/>
	<path d="M29.662,77.623v-6.97h0.495v6.97H29.662z"/>
	<path d="M34.067,77.795c-0.603,0-1.174-0.14-1.767-0.302l0.194-0.452c0.517,0.194,1.013,0.355,1.583,0.355
		c0.809,0,1.832-0.302,1.832-1.529c0-1.023-0.852-1.347-1.745-1.659c-0.927-0.323-1.864-0.7-1.864-1.907
		c0-1.281,1.013-1.756,2.295-1.756c0.474,0,1.045,0.108,1.616,0.302l-0.194,0.452c-0.398-0.172-0.818-0.355-1.486-0.355
		c-0.938,0-1.713,0.323-1.713,1.357c0,0.83,0.732,1.132,1.54,1.411c0.991,0.345,2.068,0.744,2.068,2.134
		C36.426,77.332,35.349,77.795,34.067,77.795z"/>
	<path d="M40.584,71.063v6.561h-0.496v-6.561h-2.133v-0.409h4.762v0.409H40.584z"/>
</g>
<g>
	<path d="M43.319,81.884v6.97h-0.495v-6.97H43.319z"/>
	<path d="M36.911,81.884l3.695,6.388v-6.388h0.431v6.97h-0.668l-3.674-6.389v6.389h-0.474v-6.97H36.911z"/>
	<path d="M32.861,81.711c0.603,0,1.174,0.141,1.767,0.303l-0.194,0.451c-0.517-0.193-1.013-0.355-1.583-0.355
		c-0.809,0-1.832,0.303-1.832,1.53c0,1.023,0.852,1.347,1.745,1.659c0.927,0.323,1.864,0.7,1.864,1.906
		c0,1.282-1.013,1.756-2.295,1.756c-0.474,0-1.045-0.107-1.616-0.301l0.194-0.453c0.398,0.173,0.818,0.355,1.486,0.355
		c0.938,0,1.713-0.322,1.713-1.357c0-0.829-0.732-1.131-1.54-1.41c-0.991-0.346-2.068-0.744-2.068-2.134
		C30.502,82.175,31.579,81.711,32.861,81.711z"/>
	<path d="M27.025,88.445v-6.561h0.495v6.561h2.133v0.409h-4.762v-0.409H27.025z"/>
	<path d="M23.88,81.884v6.97h-0.495v-6.97H23.88z"/>
	<path d="M19.743,88.445v-6.561h0.496v6.561h2.133v0.409H17.61v-0.409H19.743z"/>
	<path d="M13.95,81.711c1.853,0,2.521,0.884,2.521,2.748v4.395h-0.496v-4.287c0-1.885-0.527-2.457-2.024-2.457
		c-1.379,0-1.886,0.658-1.886,2.457v4.287h-0.495v-4.416C11.569,82.584,12.28,81.711,13.95,81.711z"/>
	<path d="M7.8,88.445v-6.561h0.495v6.561h2.133v0.409H5.666v-0.409H7.8z"/>
	<path d="M4.526,81.884v6.97H0.82v-0.398h3.21v-2.769H1.047v-0.398H4.03v-3.006H0.724v-0.398H4.526z"/>
</g>
</svg>
