<?xml version="1.0" encoding="utf-8"?>
<!-- Generator: Adobe Illustrator 23.0.3, SVG Export Plug-In . SVG Version: 6.00 Build 0)  -->
<svg width="60px" height="100px"  version="1.1" id="Layer_1" xmlns="http://www.w3.org/2000/svg" xmlns:xlink="http://www.w3.org/1999/xlink" x="0px" y="0px"
	 viewBox="0 0 60 100" style="enable-background:new 0 0 60 100;" xml:space="preserve">
<style type="text/css">
	.st0{font-family:'Colaborate-Thin';}
	.st1{font-size:14.1962px;}
</style>
<g>
	<g>
		<path d="M23.4,24.4V52.2c0,4.25,0.06,6.93,0.19,8.03c0.13,1.1,0.6,1.95,1.41,2.53c0.81,0.58,2.25,0.88,4.33,0.88h1.02v2.24H8.9
			v-2.24h1.65c2.3,0,3.8-0.33,4.5-1c0.7-0.66,1.1-1.46,1.22-2.39c0.11-0.92,0.17-3.61,0.17-8.06V40.13c0-4.67-0.22-7.53-0.66-8.57
			s-1.02-1.69-1.75-1.95c-0.73-0.26-2-0.39-3.82-0.39H8.9v-2.24c5.78-0.58,10.25-1.44,13.43-2.58H23.4z M15.26,10.84
			c0-1.05,0.37-1.95,1.12-2.71C17.12,7.38,18.01,7,19.06,7c1.05,0,1.94,0.38,2.67,1.13c0.73,0.76,1.1,1.66,1.1,2.71
			c0,1.07-0.37,1.99-1.1,2.74c-0.73,0.76-1.62,1.13-2.67,1.13c-1.05,0-1.95-0.38-2.69-1.13C15.63,12.83,15.26,11.91,15.26,10.84z"/>
	</g>
</g>
<g>
	<g>
		<path d="M44.78,24.4V52.2c0,4.25,0.06,6.93,0.19,8.03c0.13,1.1,0.6,1.95,1.41,2.53c0.81,0.58,2.25,0.88,4.33,0.88h1.02v2.24H30.28
			v-2.24h1.65c2.3,0,3.8-0.33,4.5-1c0.7-0.66,1.1-1.46,1.22-2.39c0.11-0.92,0.17-3.61,0.17-8.06V40.13c0-4.67-0.22-7.53-0.66-8.57
			c-0.44-1.04-1.02-1.69-1.75-1.95c-0.73-0.26-2-0.39-3.82-0.39h-1.31v-2.24c5.78-0.58,10.25-1.44,13.43-2.58H44.78z M36.64,10.84
			c0-1.05,0.37-1.95,1.12-2.71C38.5,7.38,39.4,7,40.45,7c1.05,0,1.94,0.38,2.67,1.13c0.73,0.76,1.1,1.66,1.1,2.71
			c0,1.07-0.37,1.99-1.1,2.74c-0.73,0.76-1.62,1.13-2.67,1.13c-1.05,0-1.95-0.38-2.69-1.13C37.01,12.83,36.64,11.91,36.64,10.84z"/>
	</g>
</g>
<text transform="matrix(1 0 0 1 8.4043 80.27)"><tspan x="0" y="0" class="st0 st1">idealist</tspan><tspan x="0" y="12.93" class="st0 st1">institute</tspan></text>
</svg>
